<?xml version="1.0" encoding="UTF-8" standalone="no"?>
<!-- Creator: CorelDRAW X8 -->

<svg
   xmlns:dc="http://purl.org/dc/elements/1.1/"
   xmlns:cc="http://creativecommons.org/ns#"
   xmlns:rdf="http://www.w3.org/1999/02/22-rdf-syntax-ns#"
   xmlns:svg="http://www.w3.org/2000/svg"
   xmlns="http://www.w3.org/2000/svg"
   xmlns:sodipodi="http://sodipodi.sourceforge.net/DTD/sodipodi-0.dtd"
   xmlns:inkscape="http://www.inkscape.org/namespaces/inkscape"
   xml:space="preserve"
   width="160"
   height="200"
   version="1.1"
   style="clip-rule:evenodd;fill-rule:evenodd;image-rendering:optimizeQuality;shape-rendering:geometricPrecision;text-rendering:geometricPrecision"
   viewBox="0 0 2932.4551 3665.4713"
   id="svg35"
   sodipodi:docname="fedora.svg"
   inkscape:version="0.92.2pre0 (973e216, 2017-07-25)"><metadata
     id="metadata39"><rdf:RDF><cc:Work
         rdf:about=""><dc:format>image/svg+xml</dc:format><dc:type
           rdf:resource="http://purl.org/dc/dcmitype/StillImage" /><dc:title></dc:title></cc:Work></rdf:RDF></metadata><sodipodi:namedview
     pagecolor="#ffffff"
     bordercolor="#666666"
     borderopacity="1"
     objecttolerance="10"
     gridtolerance="10"
     guidetolerance="10"
     inkscape:pageopacity="0"
     inkscape:pageshadow="2"
     inkscape:window-width="1366"
     inkscape:window-height="704"
     id="namedview37"
     showgrid="false"
     units="px"
     inkscape:zoom="1.240039"
     inkscape:cx="75.486239"
     inkscape:cy="95.158297"
     inkscape:window-x="0"
     inkscape:window-y="0"
     inkscape:window-maximized="1"
     inkscape:current-layer="svg35" /><defs
     id="defs4"><style
       type="text/css"
       id="style2"><![CDATA[
    .str0 {stroke:#FEFEFE;stroke-width:5.27903}
    .str1 {stroke:#021535;stroke-width:5.27903}
    .fil2 {fill:#021535}
    .fil0 {fill:#021535}
    .fil3 {fill:#3C6DB3}
    .fil1 {fill:#FEFEFF}
   ]]></style></defs><g
     id="Contenido_x0020_de_x0020_PowerClip"
     transform="translate(82.588942,88.11207)"><metadata
       id="CorelCorpID_0Corel-Layer" /><path
       class="fil0"
       d="m 1250,3423 c 10,41 44,82 87,47 24,-22 18,-102 18,-144 v -468 c 0,-27 -2,-48 -19,-60 -17,-13 -44,-13 -60,-1 -33,23 -21,95 -21,139 0,39 5,122 -3,157 -21,-28 -33,-42 -70,-58 -94,-40 -223,3 -272,112 -31,69 -27,159 7,224 43,80 88,110 185,116 48,2 111,-27 148,-64 z m -166,-307 c -162,49 -105,326 76,276 159,-44 106,-332 -76,-276 z"
       id="path7"
       inkscape:connector-curvature="0"
       style="fill:#021535" /><path
       class="fil0"
       d="m 2494,3116 c 87,-28 151,30 167,97 21,88 -24,160 -92,179 -177,50 -241,-224 -75,-276 z m 169,310 c 16,22 18,51 50,55 37,4 51,-22 52,-56 3,-56 4,-160 -3,-213 -40,-270 -452,-245 -463,32 -8,207 208,325 364,182 z"
       id="path9"
       inkscape:connector-curvature="0"
       style="fill:#021535" /><path
       class="fil0"
       d="m 457,3212 c 22,-144 225,-145 248,1 z m 231,253 c 25,-11 45,-22 65,-40 14,-13 42,-33 27,-64 -29,-60 -81,14 -136,32 -92,29 -185,-17 -188,-109 75,0 303,2 340,1 29,-93 -49,-208 -106,-237 -186,-95 -392,78 -325,282 14,43 38,74 69,101 67,58 173,67 254,34 z"
       id="path11"
       inkscape:connector-curvature="0"
       style="fill:#021535" /><path
       class="fil0"
       d="m 1630,3116 c 85,-27 152,29 168,96 20,88 -26,162 -93,180 -178,48 -240,-224 -75,-276 z m 215,289 c 143,-193 -10,-389 -184,-384 -246,8 -303,331 -104,437 89,47 225,31 288,-53 z"
       id="path13"
       inkscape:connector-curvature="0"
       style="fill:#021535" /><path
       class="fil0"
       d="m 0,3075 c -1,59 66,41 102,44 0,70 -1,140 -1,202 0,55 -18,157 47,160 70,3 53,-93 53,-149 0,-71 0,-142 0,-213 48,0 104,9 107,-41 3,-54 -62,-45 -105,-45 -25,-212 139,-113 153,-181 16,-83 -124,-88 -208,1 -51,54 -46,96 -45,180 -29,0 -102,-8 -103,42 z"
       id="path15"
       inkscape:connector-curvature="0"
       style="fill:#021535" /><path
       class="fil0"
       d="m 1982,3090 v 324 c 0,41 17,76 63,65 89,-20 -20,-252 80,-333 62,-51 120,-22 146,-53 11,-13 13,-34 5,-50 -23,-43 -123,-26 -190,45 -10,-35 -12,-61 -51,-63 -39,-2 -53,28 -53,65 z"
       id="path17"
       inkscape:connector-curvature="0"
       style="fill:#021535" /><g
       id="_1047868358464"><path
         class="fil0 str0"
         d="M 79,2289 V 1304 C 79,592 668,3 1380,3 c 718,0 1312,582 1312,1302 0,717 -583,1311 -1302,1311 H 406 C 217,2616 79,2478 79,2289 Z"
         id="path19"
         inkscape:connector-curvature="0"
         style="fill:#021535;stroke:#fefefe;stroke-width:5.27902985" /></g><path
       class="fil0 str1"
       d="m 97,2289 c 0,179 130,309 309,309 h 984 c 702,0 1284,-579 1284,-1293 C 2674,602 2095,21 1380,21 678,21 97,602 97,1304 Z"
       id="path22"
       inkscape:connector-curvature="0"
       style="fill:#021535;stroke:#021535;stroke-width:5.27902985" /><path
       class="fil1"
       d="m 829,1168 c -43,44 -102,61 -92,156 9,87 57,93 117,127 61,-7 219,-9 268,9 31,105 15,387 -39,476 -76,122 -181,156 -370,145 -76,1 -138,31 -153,97 -24,105 46,124 73,168 112,6 173,60 372,-5 123,-40 193,-104 260,-175 174,-182 151,-423 151,-716 l 280,2 c 55,-35 110,-46 113,-135 4,-75 -33,-98 -75,-132 -15,-12 -7,-5 -18,-16 -48,5 -257,11 -285,-19 -28,-30 -34,-354 27,-460 66,-117 174,-167 360,-155 81,6 142,-20 164,-84 32,-89 -33,-123 -58,-172 -52,-7 -106,-32 -176,-33 -304,-7 -559,214 -607,493 -22,124 9,332 -16,428 z"
       id="path24"
       inkscape:connector-curvature="0"
       style="fill:#fefeff" /><path
       class="fil2"
       d="m 1716,1169 c 104,-7 156,-25 224,-75 45,-33 97,-113 110,-197 20,-125 -36,-243 -131,-311 -32,-23 -79,-32 -101,-51 -186,-12 -294,38 -360,155 -61,106 -55,430 -27,460 28,30 237,24 285,19 z"
       id="path26"
       inkscape:connector-curvature="0"
       style="fill:#021535" /><path
       class="fil2"
       d="m 713,2081 c 189,11 294,-23 370,-145 54,-89 70,-371 39,-476 -49,-18 -207,-16 -268,-9 -386,-14 -458,408 -238,573 35,26 69,34 97,57 z"
       id="path28"
       inkscape:connector-curvature="0"
       style="fill:#021535" /><path
       class="fil3"
       d="m 633,2346 c -27,-44 -97,-63 -73,-168 15,-66 77,-96 153,-97 -28,-23 -62,-31 -97,-57 -220,-165 -148,-587 238,-573 -60,-34 -108,-40 -117,-127 -10,-95 49,-112 92,-156 -311,-13 -564,226 -609,494 -60,355 161,599 413,684 z"
       id="path30"
       inkscape:connector-curvature="0"
       style="fill:#3c6db3" /><path
       class="fil3"
       d="m 1818,535 c 22,19 69,28 101,51 95,68 151,186 131,311 -13,84 -65,164 -110,197 -68,50 -120,68 -224,75 11,11 3,4 18,16 42,34 79,57 75,132 -3,89 -58,100 -113,135 835,-37 779,-1034 228,-1173 25,49 90,83 58,172 -22,64 -83,90 -164,84 z"
       id="path32"
       inkscape:connector-curvature="0"
       style="fill:#3c6db3" /></g></svg>