<?xml version="1.0" encoding="UTF-8"?>
<!DOCTYPE svg PUBLIC "-//W3C//DTD SVG 1.1//EN" "http://www.w3.org/Graphics/SVG/1.1/DTD/svg11.dtd">
<!-- Creator: CorelDRAW X8 -->
<svg xmlns="http://www.w3.org/2000/svg" xml:space="preserve" width="106.591mm" height="57.6096mm" version="1.1" style="shape-rendering:geometricPrecision; text-rendering:geometricPrecision; image-rendering:optimizeQuality; fill-rule:evenodd; clip-rule:evenodd"
viewBox="0 0 10411 5627"
 xmlns:xlink="http://www.w3.org/1999/xlink">
 <defs>
  <style type="text/css">
   <![CDATA[
    .fil0 {fill:#FEFEFE}
    .fil1 {fill:#4A3A64}
    .fil7 {fill:#FEFEFE;fill-rule:nonzero}
    .fil3 {fill:#EE4685;fill-rule:nonzero}
    .fil6 {fill:#F18535;fill-rule:nonzero}
    .fil5 {fill:#F9DF27;fill-rule:nonzero}
    .fil4 {fill:#9F4E9C;fill-rule:nonzero}
    .fil2 {fill:#63C7C7;fill-rule:nonzero}
    .fil8 {fill:#51426B;fill-rule:nonzero}
   ]]>
  </style>
 </defs>
 <g id="Capa_x0020_1">
  <metadata id="CorelCorpID_0Corel-Layer"/>
  <g id="_686530572256">
   <path class="fil0" d="M4996 4531c-28,217 63,407 276,463 82,22 176,-4 239,19 133,46 169,244 97,345 -139,195 -614,-29 -543,205 23,75 128,59 188,59 144,0 310,18 423,-81 170,-150 181,-398 80,-545 -61,-90 -154,-157 -264,-168 -63,-6 -307,43 -322,-187 -28,-428 488,-155 567,-296 22,-41 13,-97 -28,-120 -45,-27 -266,-14 -332,-14 -195,-1 -357,125 -381,320z"/>
   <path class="fil0" d="M6161 4756c51,-24 214,-16 279,-13 115,6 94,97 95,185 0,92 0,184 0,276 0,254 30,249 -325,240 -116,-3 -97,-93 -97,-183 -1,-92 0,-184 0,-276 -1,-74 -26,-194 48,-229zm-226 200c0,121 0,242 0,362 -3,316 233,304 419,304 106,0 197,4 277,-74 84,-82 82,-165 82,-278 0,-92 10,-451 -14,-526 -23,-72 -88,-146 -145,-161 -74,-20 -168,-15 -229,-14 -70,0 -189,-8 -244,14 -125,51 -146,169 -146,373z"/>
   <path class="fil0" d="M3454 4782c-123,49 -126,151 0,187 8,115 2,251 2,368 0,84 -35,284 88,284 125,1 89,-197 88,-284 0,-122 -2,-246 1,-368 105,-19 371,48 374,-90 4,-127 -194,-90 -371,-93 -11,-141 -38,-368 141,-406 66,-14 209,14 257,-20 68,-49 40,-152 -52,-160 -158,-14 -329,-3 -436,120 -133,153 -75,281 -92,462z"/>
   <path class="fil0" d="M6782 5261c10,190 135,349 333,360 77,4 254,30 277,-66 32,-138 -156,-111 -238,-112 -259,-4 -195,-304 -196,-487 -1,-139 7,-607 -6,-704 -75,-88 -167,-60 -171,46 -4,104 0,219 0,325 0,208 -8,432 1,638z"/>
   <path class="fil0" d="M4161 5421c63,179 285,215 488,200 115,-8 156,-179 -48,-178 -115,1 -270,4 -289,-141 -15,-47 -9,-735 -8,-879 1,-75 25,-220 -84,-223 -115,-3 -94,124 -94,204 -1,197 -27,858 35,1017z"/>
   <path class="fil0" d="M4801 4255c-18,216 -3,497 -3,720 0,121 0,241 0,362 0,83 -34,273 81,283 128,12 96,-173 96,-254 1,-333 11,-787 -1,-1096 -29,-98 -120,-103 -173,-15z"/>
  </g>
  <g id="_686530554016">
   <path class="fil0" d="M5402 2339c-27,-57 -109,-151 -120,-185 -30,-86 66,-95 37,-218l70 -38c3,1 13,6 16,6 40,9 19,-19 93,5 183,58 33,54 356,236 0,77 -2,61 -39,120 -64,104 35,56 -175,268 -65,66 -172,129 -220,236l-36 101c-80,-134 96,-360 18,-531zm-114 -424c-43,-30 -53,-68 -106,-88 -57,-21 -74,-5 -124,-56 -69,-71 -57,-167 -129,-227 204,-9 154,94 213,233l75 -18 71 156zm1533 120l7 42 -60 7 -584 47 -19 -58c-58,-308 -52,-164 -103,-338 158,-192 533,-481 499,-627 -12,-55 -511,-523 -583,-565 -122,-18 -190,128 -270,217 -55,62 -191,201 -220,268 6,102 243,326 336,360 72,-12 229,-178 258,-248 -15,-64 -173,-211 -234,-239 23,91 125,153 156,239l-168 174c-78,-87 -194,-157 -250,-260l361 -381c60,44 413,422 431,472l-440 432c-88,-58 -110,-101 -226,-158 -407,-200 -290,231 -336,-853 -275,-115 -410,141 -91,112l58 660c-78,3 -149,14 -223,37 -64,19 -121,56 -184,71 -80,-98 -191,-195 -284,-279 -275,-251 -246,-374 -623,56 -279,319 -363,300 -180,471 35,33 110,98 149,127 84,63 218,253 321,178 34,-25 253,-251 270,-286 50,-104 -217,-295 -257,-285 -11,2 -217,179 -208,227 41,4 175,-120 223,-152 49,23 157,127 179,178l-248 236c-44,-23 -359,-318 -391,-365l463 -425 438 442c-157,226 -184,192 -239,536l-765 34c-55,73 -64,303 88,257 36,-65 25,-101 22,-173l657 -56c12,249 72,271 107,394 -167,222 -584,501 -484,662 49,79 236,214 304,291 55,61 258,276 339,240l383 -430c81,-103 -23,-183 -92,-247 -52,-50 -161,-162 -237,-167 -38,19 -231,206 -230,251 1,52 180,213 227,232 -2,-69 -118,-164 -152,-232 17,-34 137,-152 170,-176 62,58 221,197 245,260l-356 375c-45,-28 -409,-414 -434,-462l430 -441c74,29 165,182 465,231l82 23 30 765c329,85 378,-142 87,-118l-52 -660c74,-3 147,-15 217,-36 70,-21 119,-60 190,-70 59,92 204,201 286,280 80,76 196,251 325,219 56,-13 553,-567 554,-568 58,-118 -239,-316 -377,-432 -56,-47 -95,-111 -179,-54 -35,24 -257,258 -272,295 -38,97 227,282 251,278 10,-1 214,-171 223,-235 -61,24 -166,118 -227,161 -50,-33 -156,-124 -180,-177l253 -241c50,33 368,333 385,370l-459 422 -440 -438c45,-76 112,-135 157,-232 45,-95 72,-205 78,-310l779 -25c10,-64 43,-198 -2,-251 -27,-32 -73,-36 -101,-3 -23,28 -21,90 -23,124z"/>
   <path class="fil1" d="M5319 1936c29,123 -67,132 -37,218 11,34 93,128 120,185 78,171 -98,397 -18,531l36 -101c48,-107 155,-170 220,-236 210,-212 111,-164 175,-268 37,-59 39,-43 39,-120 -323,-182 -173,-178 -356,-236 -74,-24 -53,4 -93,-5 -3,0 -13,-5 -16,-6l-70 38z"/>
   <path class="fil1" d="M5288 1915l-71 -156 -75 18c-59,-139 -9,-242 -213,-233 72,60 60,156 129,227 50,51 67,35 124,56 53,20 63,58 106,88z"/>
   <path class="fil0" d="M4210 2441c69,-151 -90,-202 -150,-65 -68,152 88,204 150,65z"/>
   <path class="fil0" d="M6572 1788c-110,54 -104,261 30,201 91,-40 116,-271 -30,-201z"/>
   <path class="fil0" d="M5510 3369c17,92 242,154 221,16 -17,-108 -246,-147 -221,-16z"/>
   <path class="fil0" d="M5422 3143c20,98 239,149 222,21 -13,-110 -248,-152 -222,-21z"/>
   <path class="fil0" d="M5110 1070c-114,66 68,210 161,152 97,-61 -58,-212 -161,-152z"/>
   <path class="fil0" d="M6308 2083c158,15 179,-196 93,-218 -86,-22 -178,123 -93,218z"/>
   <path class="fil0" d="M4305 2430c156,14 182,-197 92,-219 -85,-21 -175,125 -92,219z"/>
   <path class="fil0" d="M5208 965c18,-125 -191,-185 -219,-82 -21,82 149,191 219,82z"/>
   <polygon class="fil0" points="6768,2084 6828,2077 6821,2035 6821,2068 "/>
  </g>
  <path class="fil2" d="M3787 3374c0,0 -956,-378 -1330,127 -374,506 134,1069 551,831 417,-238 231,-460 779,-958z"/>
  <path class="fil3" d="M3555 2810c0,0 -1126,323 -2146,-272 -1488,-867 564,-2372 964,-1658 552,985 370,1502 1182,1930z"/>
  <path class="fil4" d="M2387 3092c0,0 -1259,926 -1944,679 -854,-309 -304,-1426 236,-1144 539,282 785,596 1708,465z"/>
  <path class="fil5" d="M3194 2290c0,0 181,-731 -28,-1036 -210,-305 -424,80 -289,232 135,153 273,466 317,804z"/>
  <path class="fil3" d="M2232 3541c0,0 -435,122 -504,451 -69,329 432,343 390,88 -43,-256 -42,-359 114,-539z"/>
  <path class="fil5" d="M7909 763c0,0 150,-245 412,-352 263,-107 152,-521 -89,-383 -242,137 -342,468 -323,735z"/>
  <path class="fil6" d="M1007 2520c0,0 -355,-52 -518,-269 -162,-216 131,-457 229,-251 98,206 200,464 289,520z"/>
  <path class="fil2" d="M3179 1042c0,0 71,-216 3,-357 -69,-140 -275,-33 -195,72 81,104 186,224 192,285z"/>
  <path class="fil7" d="M3449 3368c41,15 84,34 129,23 14,-3 15,-27 1,-32 -39,-12 -80,-16 -120,-21 -18,-3 -28,24 -10,30z"/>
  <path class="fil7" d="M3198 3347c37,11 74,16 113,13 23,-2 20,-38 -4,-37 -34,1 -69,-5 -104,-7 -20,0 -25,25 -5,31z"/>
  <path class="fil7" d="M2858 3354c-16,11 -2,35 16,30 33,-10 68,-15 102,-18 27,-2 23,-42 -4,-41 -41,1 -79,4 -114,29z"/>
  <path class="fil7" d="M2603 3454c-20,15 -29,39 -35,62 -4,19 23,26 31,10 16,-28 43,-50 75,-58 23,-5 14,-44 -9,-40 -23,4 -44,12 -62,26z"/>
  <path class="fil7" d="M2461 3678c-19,46 -27,90 -29,140 -1,16 25,16 28,1 10,-42 22,-84 37,-124 8,-23 -26,-40 -36,-17z"/>
  <path class="fil7" d="M2459 4003c6,49 26,87 54,127 7,11 25,2 20,-10 -16,-40 -35,-82 -45,-124 -4,-16 -31,-10 -29,7z"/>
  <path class="fil7" d="M2650 4264c35,28 74,43 117,52 13,3 24,-17 12,-25 -33,-22 -71,-35 -102,-59 -21,-16 -47,15 -27,32z"/>
  <path class="fil7" d="M2932 4280c-17,2 -15,29 3,27 47,-3 102,2 134,-39 5,-5 -1,-15 -8,-11 -41,17 -84,19 -129,23z"/>
  <path class="fil7" d="M3153 4081c-12,31 -27,65 -52,87 -13,12 1,33 15,22 34,-26 54,-60 59,-102 1,-12 -17,-20 -22,-7z"/>
  <path class="fil7" d="M3270 3801c-15,36 -33,70 -44,107 -4,15 20,22 25,8 13,-36 35,-69 41,-108 2,-13 -17,-20 -22,-7z"/>
  <path class="fil7" d="M3384 3612c-9,14 -17,29 -27,42 -14,17 11,37 25,22 15,-16 25,-34 29,-55 3,-17 -19,-23 -27,-9z"/>
  <path class="fil7" d="M3523 3452c-22,9 -40,27 -58,42 -19,16 2,47 22,32 19,-15 41,-28 55,-48 8,-13 -2,-33 -19,-26z"/>
  <path class="fil7" d="M2829 3575c-105,63 -214,241 -174,368 36,115 173,158 262,65 54,-55 80,-120 103,-193 46,-144 127,-196 257,-263 28,-15 13,-60 -17,-47 -1,1 -2,1 -3,2 -2,-2 -4,-3 -6,-3 -142,-34 -297,-3 -422,71z"/>
  <path class="fil2" d="M2764 3933c-13,8 -17,24 -22,37 -7,18 17,29 26,13 8,-13 18,-25 16,-41 -1,-10 -12,-14 -20,-9z"/>
  <path class="fil2" d="M2847 3924c-7,15 -1,29 2,44 3,17 26,15 26,-2 0,-15 3,-31 -6,-44 -6,-7 -18,-6 -22,2z"/>
  <path class="fil2" d="M2904 3807c-11,4 -12,16 -5,23 12,12 30,12 45,15 19,5 29,-25 10,-31 -15,-5 -34,-14 -50,-7z"/>
  <path class="fil2" d="M2908 3731c0,1 0,1 0,2 -2,2 -7,4 -10,5 -13,6 -10,28 5,26 11,-2 28,-5 33,-17 5,-12 -1,-26 -14,-29 -9,-1 -14,6 -14,13z"/>
  <path class="fil2" d="M2798 3700c-1,4 1,8 5,11 0,0 0,0 0,0 0,6 0,11 0,17 1,16 28,17 29,1 1,-13 5,-27 -3,-38 -11,-14 -28,-5 -31,9z"/>
  <path class="fil2" d="M2689 3817c-6,7 -2,21 9,22 11,2 22,0 33,4 20,9 33,-19 14,-30 -17,-9 -41,-14 -56,4z"/>
  <path class="fil2" d="M2794 3823c3,33 54,29 52,-4 -3,-33 -55,-29 -52,4z"/>
  <path class="fil7" d="M3169 2724c28,19 61,31 92,44 19,9 30,-18 13,-28 -29,-17 -58,-39 -92,-44 -14,-3 -27,18 -13,28z"/>
  <path class="fil7" d="M2935 2726c25,20 53,35 80,53 15,10 34,-12 19,-23 -27,-19 -54,-39 -85,-53 -13,-6 -26,13 -14,23z"/>
  <path class="fil7" d="M2678 2751c20,11 40,23 58,36 17,12 36,-10 20,-24 -21,-19 -42,-31 -70,-38 -15,-4 -20,18 -8,26z"/>
  <path class="fil7" d="M2425 2700c8,16 19,30 27,46 7,16 33,7 26,-10 -8,-20 -18,-39 -35,-53 -11,-10 -25,5 -18,17z"/>
  <path class="fil7" d="M2111 2664c5,4 9,12 12,18 3,8 3,17 4,25 3,12 22,12 27,1 5,-13 3,-28 -1,-41 -5,-15 -16,-23 -31,-27 -14,-4 -19,15 -11,24z"/>
  <path class="fil7" d="M1874 2540c-17,16 -19,40 -17,61 2,16 27,14 26,-3 -1,-17 6,-32 11,-48 4,-13 -13,-16 -20,-10z"/>
  <path class="fil7" d="M1583 2445c-4,13 -2,28 -6,42 -5,15 20,22 26,8 8,-18 13,-37 2,-55 -6,-10 -19,-5 -22,5z"/>
  <path class="fil7" d="M1317 2265c9,16 11,32 4,49 -6,13 13,21 19,9 13,-25 13,-51 -8,-71 -9,-8 -20,4 -15,13z"/>
  <path class="fil7" d="M1132 2067c-9,8 -16,17 -23,27 -9,11 7,25 17,14 8,-9 16,-17 22,-28 8,-11 -6,-23 -16,-13z"/>
  <path class="fil7" d="M981 1806c-14,2 -13,24 3,23 21,-1 45,-3 63,-16 9,-7 3,-20 -8,-20 -19,0 -38,9 -58,13z"/>
  <path class="fil7" d="M1088 1527c21,3 46,8 66,1 13,-5 9,-21 -2,-25 -18,-5 -40,-2 -59,-5 -18,-2 -24,26 -5,29z"/>
  <path class="fil7" d="M1221 1229c-22,6 -13,39 8,38 8,-1 17,1 23,6 12,9 32,-3 25,-17 -5,-11 -12,-19 -22,-25 -10,-7 -23,-5 -34,-2z"/>
  <path class="fil7" d="M1433 1024c-4,19 1,42 3,61 2,17 27,15 26,-2 -1,-20 0,-43 -7,-61 -4,-11 -20,-10 -22,2z"/>
  <path class="fil7" d="M1683 892c-16,19 -20,40 -20,64 1,24 39,21 38,-4 -1,-14 3,-29 8,-43 5,-16 -14,-32 -26,-17z"/>
  <path class="fil7" d="M1971 807c-2,23 -6,44 -18,63 -9,14 10,30 19,17 16,-23 27,-50 21,-79 -2,-11 -22,-14 -22,-1z"/>
  <path class="fil7" d="M2217 936c-20,6 -34,23 -47,39 -13,17 11,37 26,21 12,-13 26,-24 36,-39 8,-11 -1,-25 -15,-21z"/>
  <path class="fil7" d="M2437 1360c-11,9 -22,20 -31,32 -11,13 7,35 21,23 10,-9 21,-17 32,-24 10,-6 19,-12 22,-24 2,-8 -3,-14 -9,-18 -12,-7 -26,2 -35,11z"/>
  <path class="fil7" d="M2453 1547c-16,9 -2,35 14,28 23,-10 48,-19 68,-34 13,-11 2,-29 -14,-26 -24,6 -46,20 -68,32z"/>
  <path class="fil7" d="M2516 1750c-19,9 -9,38 12,31 21,-7 44,-8 66,-15 15,-5 10,-26 -3,-30 -25,-7 -52,3 -75,14z"/>
  <path class="fil7" d="M2639 2068c-8,4 -5,16 4,16 28,-1 56,2 85,3 11,0 11,-15 3,-20 -27,-16 -64,-11 -92,1z"/>
  <path class="fil7" d="M2794 2316c-13,7 -15,30 3,32 32,2 65,-3 97,-2 14,0 17,-22 5,-27 -32,-12 -73,-18 -105,-3z"/>
  <path class="fil7" d="M2956 2558c22,8 44,15 67,11 14,-2 16,-22 2,-25 -19,-3 -39,-5 -57,-11 -16,-6 -29,18 -12,25z"/>
  <path class="fil7" d="M2219 1778c73,278 185,551 396,749 -24,1 -48,0 -72,-2 -28,-6 -57,-13 -87,-16 -4,0 -8,2 -11,4 -109,-19 -215,-57 -320,-101 -156,-67 -316,-140 -459,-233 -258,-169 -333,-505 -146,-758 99,-135 266,-196 422,-125 184,83 231,307 277,482zm-777 -338c-142,248 -88,546 128,731 141,122 328,194 497,267 104,45 226,80 342,104 66,14 137,31 204,36 13,1 141,11 87,-36 -170,-148 -279,-361 -356,-571 -73,-201 -90,-434 -225,-607 -190,-243 -533,-176 -677,76z"/>
  <path class="fil7" d="M2224 2376c46,20 93,35 142,49 14,4 22,-20 8,-25 -48,-17 -93,-35 -143,-47 -13,-3 -20,18 -7,23z"/>
  <path class="fil7" d="M1970 2283c39,16 75,37 120,33 18,-1 16,-24 1,-29 -38,-11 -73,-25 -112,-32 -16,-2 -25,21 -9,28z"/>
  <path class="fil7" d="M1691 2097c36,21 71,39 103,65 17,14 37,-11 22,-25 -32,-29 -70,-66 -115,-69 -18,-1 -25,20 -10,29z"/>
  <path class="fil7" d="M1527 1896c7,44 26,78 60,106 15,13 34,-9 20,-23 -26,-23 -43,-57 -59,-88 -5,-10 -23,-8 -21,5z"/>
  <path class="fil7" d="M1494 1606c-17,44 -17,88 -9,133 3,17 29,15 27,-2 -6,-41 -5,-83 3,-124 2,-12 -16,-18 -21,-7z"/>
  <path class="fil7" d="M1657 1367c-37,12 -64,36 -85,68 -10,14 10,32 21,17 19,-27 46,-48 74,-65 12,-7 1,-24 -10,-20z"/>
  <path class="fil7" d="M1845 1360c25,-2 47,6 71,14 12,5 24,-11 13,-20 -25,-20 -56,-25 -87,-24 -19,0 -17,31 3,30z"/>
  <path class="fil7" d="M2008 1483c18,31 32,67 44,100 6,16 32,11 30,-6 -7,-43 -18,-80 -43,-116 -14,-21 -44,1 -31,22z"/>
  <path class="fil7" d="M2130 1756c-19,49 9,108 24,154 4,10 20,7 19,-4 -8,-49 -17,-104 -36,-150 -1,-2 -6,-3 -7,0z"/>
  <path class="fil7" d="M2179 2059c16,35 31,70 56,100 8,9 25,2 19,-10 -16,-36 -40,-65 -64,-96 -4,-5 -14,-1 -11,6z"/>
  <path class="fil7" d="M2310 2269c8,7 14,15 20,24 6,9 13,17 19,26 7,10 25,4 23,-9 -2,-13 -5,-26 -13,-37 -7,-11 -17,-21 -27,-30 -17,-15 -39,11 -22,26z"/>
  <path class="fil7" d="M1806 1557c127,9 135,217 149,309 14,94 49,173 102,247 -125,-74 -267,-153 -334,-283 -49,-95 -78,-285 83,-273zm-100 -28c-89,64 -69,185 -39,276 60,181 266,271 419,357 4,2 7,2 10,1 3,4 6,7 9,11 14,16 39,-1 27,-20 -64,-102 -111,-198 -130,-317 -11,-73 -23,-144 -52,-212 -36,-85 -156,-158 -244,-96z"/>
  <path class="fil7" d="M1770 1776c9,16 18,30 25,40 12,17 142,127 114,57 -19,-49 -35,-204 -112,-196 -63,6 -49,57 -27,99z"/>
  <path class="fil7" d="M605 2124c57,46 77,122 118,181 -37,-26 -74,-51 -107,-82 -24,-22 -43,-52 -38,-87 3,-23 11,-26 27,-12zm-52 74c39,71 116,104 184,139 4,2 9,0 12,-4 13,6 33,-4 25,-21 -23,-47 -52,-93 -80,-137 -21,-32 -60,-103 -107,-100 -56,4 -54,88 -34,123z"/>
  <path class="fil7" d="M3058 725c-4,19 6,33 22,43 1,0 1,1 2,1 10,6 28,5 37,-3 0,-1 1,-1 1,-2 14,-12 21,-28 15,-46 -7,-17 -24,-28 -41,-26 -18,1 -33,15 -36,33z"/>
  <path class="fil7" d="M3052 1457c1,15 8,31 14,45 6,13 28,14 29,-2 3,-21 -2,-41 -16,-57 -11,-10 -27,2 -27,14z"/>
  <path class="fil7" d="M2962 1386c-12,9 -18,20 -26,33 -6,10 9,23 19,15 11,-10 21,-18 28,-31 6,-13 -10,-25 -21,-17z"/>
  <path class="fil7" d="M2905 1278c-17,5 -10,31 7,30 11,-1 21,0 32,3 10,2 17,8 28,7 7,-1 13,-8 12,-15 -5,-35 -54,-32 -79,-25z"/>
  <path class="fil7" d="M3025 1223c-13,7 -16,22 -16,35 1,20 27,18 32,2 1,-4 3,-7 6,-10 -2,2 5,0 8,0 16,2 21,-17 8,-25 -12,-7 -25,-9 -38,-2z"/>
  <path class="fil7" d="M3088 1296c-17,0 -17,26 -1,29 19,4 44,-1 49,-23 3,-12 -9,-19 -19,-16 -11,2 -17,10 -29,10z"/>
  <path class="fil7" d="M3104 1392c13,7 25,8 39,4 16,-5 10,-25 -3,-29 -7,-2 -14,-4 -21,-7 -20,-10 -35,22 -15,32z"/>
  <path class="fil7" d="M960 3016c289,165 556,290 888,280 -147,91 -309,138 -473,190 -166,53 -328,104 -503,115 -136,9 -276,-1 -405,-47 -148,-53 -202,-169 -206,-318 -4,-142 43,-302 165,-385 170,-114 391,83 534,165zm-749 252c9,305 299,376 556,383 170,4 333,-29 495,-79 129,-40 259,-77 384,-130 60,-26 125,-53 179,-91 40,-28 91,-43 107,-89 -87,-45 -260,-14 -365,-36 -123,-27 -241,-73 -352,-133 -104,-56 -208,-110 -309,-169 -81,-48 -159,-109 -250,-136 -312,-95 -453,217 -445,480z"/>
  <path class="fil7" d="M508 3091c-102,62 -38,178 32,232 123,96 440,99 575,38 -39,-92 -209,-154 -289,-212 -96,-69 -205,-126 -318,-58z"/>
  <path class="fil7" d="M1315 3352c-1,2 -2,3 -2,4 -3,6 -3,14 1,20 1,1 2,2 3,3 16,21 51,9 48,-18 -2,-27 -38,-32 -50,-9z"/>
  <path class="fil7" d="M1113 3460c3,41 67,35 63,-6 -3,-41 -67,-35 -63,6z"/>
  <path class="fil7" d="M820 3477c4,40 65,34 61,-5 -3,-40 -64,-34 -61,5z"/>
  <path class="fil7" d="M604 3479c3,36 58,31 55,-4 -3,-36 -58,-31 -55,4z"/>
  <path class="fil7" d="M415 3378c4,39 64,34 61,-5 -4,-39 -64,-34 -61,5z"/>
  <path class="fil7" d="M344 3148c4,39 64,34 61,-5 -4,-39 -64,-34 -61,5z"/>
  <path class="fil7" d="M495 2960c-4,2 -16,5 -23,10 -21,14 -10,43 11,48 21,6 40,-11 43,-32 2,-16 -14,-34 -31,-26z"/>
  <path class="fil7" d="M718 2929c-33,4 -29,52 5,51 1,0 2,0 4,0 11,-1 21,-10 23,-21 1,-5 0,-9 -1,-14 -4,-10 -15,-18 -27,-17 -1,0 -3,1 -4,1z"/>
  <path class="fil7" d="M928 3090c-15,18 -6,51 20,54 3,0 6,1 10,1 21,3 36,-16 30,-36 -1,-3 -2,-6 -3,-10 -8,-24 -42,-28 -57,-9z"/>
  <path class="fil7" d="M1116 3213c1,3 3,6 4,9 8,22 37,27 51,9 15,-17 5,-45 -17,-49 -4,0 -7,-1 -11,-2 -18,-3 -33,15 -27,33z"/>
  <path class="fil4" d="M599 3182c-36,34 18,72 44,88 40,24 88,35 136,38 36,9 72,15 109,19 16,2 31,-21 15,-32 -53,-35 -103,-72 -161,-101 -38,-19 -105,-47 -143,-12z"/>
  <path class="fil7" d="M1978 3891c6,66 23,147 -4,210 -18,42 -78,21 -100,-5 -27,-33 -14,-89 -5,-126 17,-63 53,-133 104,-178 -5,32 2,70 5,99zm7 -143c-129,37 -277,379 -83,418 85,17 122,-39 128,-118 6,-92 -12,-188 -13,-280 0,-10 -10,-16 -19,-17 -3,-2 -8,-4 -13,-3z"/>
  <path class="fil7" d="M1904 4002c-12,25 18,53 41,38 6,-2 10,-7 12,-13 0,0 1,-2 3,-7 1,-5 0,-10 -2,-16 -9,-24 -43,-25 -54,-2z"/>
  <path class="fil7" d="M1957 4027c0,0 1,-1 2,-3 -1,1 -1,2 -2,3z"/>
  <path class="fil7" d="M7962 616c12,-18 18,-34 18,-56 1,-15 -21,-21 -26,-6 -5,16 -12,32 -20,47 -8,17 18,29 28,15z"/>
  <path class="fil7" d="M8012 446c8,-21 18,-42 21,-64 1,-13 -17,-20 -25,-9 -12,19 -19,41 -27,62 -7,20 24,31 31,11z"/>
  <path class="fil7" d="M8102 286c34,-6 44,-44 54,-73 4,-13 -14,-23 -22,-11 -15,22 -36,43 -46,68 -3,8 5,17 14,16z"/>
  <path class="fil7" d="M8217 158c34,-9 57,-45 92,-50 9,-1 11,-16 2,-18 -41,-10 -90,12 -107,53 -3,7 5,17 13,15z"/>
  <path class="fil7" d="M8402 147c8,1 15,-8 13,-15 -5,-27 -37,-41 -60,-51 -15,-7 -27,16 -13,25 20,13 36,36 60,41z"/>
  <path class="fil7" d="M8411 256c12,-19 15,-36 13,-58 0,-11 -19,-13 -21,-2 -5,18 -9,35 -13,53 -1,11 15,16 21,7z"/>
  <path class="fil7" d="M8375 298c8,-13 -9,-25 -19,-14 -12,14 -32,18 -45,31 -4,6 -1,15 5,17 25,7 48,-15 59,-34z"/>
  <path class="fil7" d="M8183 424c26,-13 44,-35 61,-58 11,-15 -12,-31 -24,-17 -16,19 -35,37 -52,56 -9,9 4,24 15,19z"/>
  <path class="fil7" d="M8065 524c24,-9 38,-31 46,-55 7,-18 -20,-27 -28,-10 -8,17 -22,30 -35,44 -9,12 5,25 17,21z"/>
  <path class="fil7" d="M149 2458c-12,10 -7,35 12,32 20,-4 38,-11 57,-17 20,-6 39,-10 56,-21 16,-9 5,-32 -11,-31 -37,2 -85,13 -114,37z"/>
  <path class="fil7" d="M79 2189c40,71 116,116 184,157 18,10 36,-18 20,-30 -64,-46 -122,-97 -181,-148 -14,-13 -31,6 -23,21z"/>
  <path class="fil7" d="M232 2089c8,31 25,58 40,86 13,24 48,-1 35,-25 -14,-26 -26,-54 -43,-78 -13,-18 -37,-2 -32,17z"/>
  <path class="fil8" d="M10205 1682c-265,37 -534,-158 -675,-373 0,0 257,100 520,28 263,-71 421,309 155,345z"/>
  <path class="fil2" d="M6943 3452c0,0 841,-461 1246,-36 405,425 0,1004 -414,832 -413,-171 -267,-399 -832,-796z"/>
  <path class="fil3" d="M7093 2903c0,0 1079,169 1954,-500 1276,-974 -796,-2129 -1084,-1422 -397,975 -168,1433 -870,1922z"/>
  <path class="fil4" d="M8186 3044c0,0 1272,712 1877,404 755,-384 117,-1355 -350,-1031 -467,323 -658,642 -1527,627z"/>
  <path class="fil5" d="M7367 2380c0,0 -253,-655 -94,-961 159,-307 401,24 294,181 -107,157 -198,463 -200,780z"/>
  <path class="fil3" d="M8402 3427c0,0 416,62 518,359 101,296 -360,367 -351,126 10,-242 -3,-337 -167,-485z"/>
  <path class="fil6" d="M9417 2340c0,0 322,-89 448,-308 125,-219 -174,-408 -241,-206 -67,202 -132,452 -207,514z"/>
  <path class="fil2" d="M7236 1224c0,0 -91,-192 -43,-330 47,-138 250,-62 188,44 -63,106 -147,229 -145,286z"/>
  <path class="fil7" d="M7256 3408c-37,18 -74,40 -117,36 -13,-2 -17,-24 -5,-30 34,-16 73,-24 109,-34 16,-4 29,20 13,28z"/>
  <path class="fil7" d="M7485 3359c-33,15 -66,23 -103,25 -22,0 -23,-33 -1,-35 32,-3 64,-12 96,-18 18,-3 26,20 8,28z"/>
  <path class="fil7" d="M7800 3326c17,9 6,32 -11,29 -32,-5 -64,-5 -96,-4 -25,1 -26,-36 -1,-39 38,-3 73,-5 108,14z"/>
  <path class="fil7" d="M8048 3389c20,12 31,33 39,54 7,17 -17,26 -27,12 -18,-24 -46,-41 -76,-44 -22,-3 -18,-40 4,-39 21,1 42,6 60,17z"/>
  <path class="fil7" d="M8205 3580c23,40 36,80 43,126 3,15 -21,17 -26,4 -13,-37 -30,-75 -48,-110 -11,-21 19,-41 31,-20z"/>
  <path class="fil7" d="M8272 3858c0,46 -14,84 -35,124 -6,11 -23,4 -20,-7 10,-39 23,-80 28,-120 1,-16 27,-13 27,3z"/>
  <path class="fil7" d="M7471 3787c18,32 39,61 53,94 6,13 -16,23 -22,11 -16,-33 -41,-60 -51,-96 -3,-11 14,-20 20,-9z"/>
  <path class="fil7" d="M7344 3626c10,12 19,25 30,36 14,13 -6,35 -21,22 -15,-13 -27,-27 -33,-47 -5,-16 15,-23 24,-11z"/>
  <path class="fil7" d="M7196 3494c22,6 41,20 59,32 20,12 3,44 -17,32 -18,-12 -41,-22 -56,-38 -9,-11 -2,-31 14,-26z"/>
  <path class="fil7" d="M7853 3528c105,45 226,198 204,319 -21,111 -143,166 -236,91 -56,-45 -87,-102 -117,-166 -59,-128 -140,-167 -269,-215 -27,-10 -18,-54 11,-45 1,1 2,1 3,1 2,-1 3,-2 5,-3 128,-48 275,-37 399,18z"/>
  <path class="fil2" d="M7951 3824c13,6 19,20 25,32 8,15 -12,28 -23,14 -9,-10 -19,-21 -19,-35 0,-10 9,-15 17,-11z"/>
  <path class="fil2" d="M7873 3825c8,13 5,27 4,41 -1,16 -23,17 -25,1 -2,-14 -6,-28 1,-41 4,-8 15,-8 20,-1z"/>
  <path class="fil2" d="M7811 3750c10,3 12,14 6,22 -9,11 -26,14 -39,19 -17,6 -30,-21 -13,-28 14,-7 30,-17 46,-13z"/>
  <path class="fil2" d="M7798 3681c0,0 0,1 0,1 3,3 7,4 10,4 13,4 12,25 -2,24 -10,0 -26,-1 -32,-11 -6,-11 -2,-24 10,-28 7,-3 13,3 14,10z"/>
  <path class="fil2" d="M7896 3639c1,4 0,8 -3,11 0,0 0,0 0,0 0,5 1,10 1,16 2,15 -23,19 -26,4 -3,-11 -7,-25 -1,-36 8,-14 24,-7 29,5z"/>
  <path class="fil2" d="M8010 3735c7,6 5,19 -5,21 -10,3 -21,3 -31,8 -17,10 -32,-14 -16,-26 15,-11 37,-18 52,-3z"/>
  <path class="fil2" d="M7914 3753c1,31 -47,33 -48,2 -1,-31 47,-33 48,-2z"/>
  <path class="fil7" d="M7440 2779c-24,21 -53,36 -80,52 -16,10 -30,-13 -16,-25 25,-19 50,-43 80,-51 14,-4 28,14 16,24z"/>
  <path class="fil7" d="M7657 2754c-21,21 -45,39 -68,58 -13,11 -33,-6 -20,-19 23,-21 45,-42 72,-58 12,-7 26,8 16,19z"/>
  <path class="fil7" d="M7897 2747c-17,13 -34,26 -49,41 -14,12 -34,-6 -22,-20 18,-20 36,-34 61,-44 14,-5 21,15 10,23z"/>
  <path class="fil7" d="M8126 2671c-6,16 -14,30 -20,45 -5,16 -30,11 -25,-6 5,-19 12,-37 26,-52 9,-11 23,1 19,13z"/>
  <path class="fil7" d="M8412 2601c-4,5 -7,13 -9,19 -2,7 -1,15 -1,23 -2,12 -19,13 -24,4 -7,-11 -7,-25 -5,-38 3,-14 13,-23 26,-28 13,-6 19,11 13,20z"/>
  <path class="fil7" d="M8617 2460c17,12 22,33 22,53 0,16 -23,17 -24,1 -1,-16 -9,-29 -15,-43 -5,-11 10,-17 17,-11z"/>
  <path class="fil7" d="M8875 2337c5,13 5,26 11,39 6,13 -16,23 -24,10 -9,-15 -16,-33 -8,-51 5,-10 18,-6 21,2z"/>
  <path class="fil7" d="M9100 2141c-6,15 -6,30 3,45 6,11 -10,21 -18,11 -14,-22 -17,-46 0,-67 7,-8 19,2 15,11z"/>
  <path class="fil7" d="M9249 1935c9,7 16,14 24,23 10,9 -4,24 -14,15 -9,-7 -17,-14 -24,-23 -8,-10 3,-22 14,-15z"/>
  <path class="fil7" d="M9358 1677c14,0 15,21 1,22 -20,1 -43,2 -61,-8 -9,-6 -6,-19 5,-20 18,-2 37,4 55,6z"/>
  <path class="fil7" d="M9227 1431c-19,5 -42,12 -61,8 -13,-2 -11,-18 -1,-23 16,-7 36,-7 54,-11 17,-4 25,21 8,26z"/>
  <path class="fil7" d="M9070 1171c20,3 16,34 -4,35 -7,1 -15,4 -21,9 -9,9 -29,1 -24,-13 4,-10 8,-19 17,-26 9,-7 21,-7 32,-5z"/>
  <path class="fil7" d="M8850 1005c6,18 3,39 4,58 0,15 -24,16 -25,1 -1,-19 -5,-40 0,-58 3,-10 17,-11 21,-1z"/>
  <path class="fil7" d="M8603 912c17,16 23,35 25,57 2,23 -33,24 -35,1 -1,-13 -6,-27 -12,-39 -7,-14 9,-31 22,-19z"/>
  <path class="fil7" d="M8327 867c4,21 10,41 24,57 10,11 -6,28 -16,17 -18,-20 -30,-43 -28,-70 0,-11 18,-16 20,-4z"/>
  <path class="fil7" d="M8114 1014c20,3 34,18 48,31 14,15 -6,36 -21,23 -13,-11 -28,-19 -39,-32 -8,-10 -1,-24 12,-22z"/>
  <path class="fil7" d="M8005 1283c12,8 23,16 33,26 11,11 -3,34 -18,24 -10,-7 -21,-13 -32,-18 -10,-5 -19,-9 -23,-20 -3,-7 1,-13 6,-17 11,-9 25,-2 34,5z"/>
  <path class="fil7" d="M7967 1608c15,5 5,31 -11,27 -22,-7 -46,-12 -66,-24 -14,-8 -5,-27 9,-25 24,3 46,13 68,22z"/>
  <path class="fil7" d="M7931 1803c19,6 13,34 -7,30 -21,-5 -42,-3 -62,-7 -16,-3 -13,-23 -1,-28 22,-9 48,-3 70,5z"/>
  <path class="fil7" d="M7854 2111c9,2 7,14 -1,15 -27,2 -52,9 -78,13 -11,1 -13,-13 -6,-18 24,-18 58,-18 85,-10z"/>
  <path class="fil7" d="M7740 2359c12,4 17,26 1,29 -30,6 -61,5 -90,10 -13,1 -19,-19 -8,-25 28,-15 66,-25 97,-14z"/>
  <path class="fil7" d="M7618 2601c-19,10 -39,19 -61,18 -13,0 -17,-19 -4,-23 17,-5 35,-9 51,-17 14,-8 28,13 14,22z"/>
  <path class="fil7" d="M8210 1794c-36,265 -108,531 -280,739 22,-2 44,-6 66,-10 26,-9 51,-19 79,-25 4,-1 7,0 10,2 99,-30 193,-78 284,-131 138,-79 277,-165 398,-268 220,-186 250,-506 48,-718 -108,-113 -269,-151 -405,-67 -160,98 -178,311 -200,478zm679 -402c160,213 145,494 -33,691 -117,128 -281,217 -429,304 -92,54 -200,100 -305,136 -60,20 -123,45 -185,57 -11,3 -128,26 -85,-23 141,-157 218,-367 264,-570 44,-194 33,-412 139,-588 147,-246 472,-224 634,-7z"/>
  <path class="fil7" d="M8274 2348c-40,24 -82,43 -126,61 -12,6 -22,-15 -10,-21 42,-22 82,-44 127,-60 12,-5 20,14 9,20z"/>
  <path class="fil7" d="M8498 2232c-34,20 -65,43 -107,45 -16,1 -18,-21 -4,-27 33,-15 65,-32 100,-42 15,-4 25,16 11,24z"/>
  <path class="fil7" d="M8735 2028c-31,24 -61,45 -88,73 -14,14 -36,-6 -23,-21 26,-31 57,-69 99,-78 16,-3 25,16 12,26z"/>
  <path class="fil7" d="M8863 1823c-1,41 -14,75 -43,106 -13,13 -32,-6 -21,-19 21,-25 33,-59 44,-89 4,-10 21,-10 20,2z"/>
  <path class="fil7" d="M8860 1551c21,39 26,79 24,122 -1,16 -25,17 -25,1 1,-39 -5,-77 -17,-114 -4,-11 13,-19 18,-9z"/>
  <path class="fil7" d="M8682 1349c35,7 64,26 87,53 10,12 -6,31 -18,18 -21,-23 -48,-39 -76,-52 -12,-5 -4,-21 7,-19z"/>
  <path class="fil7" d="M8507 1364c-23,1 -43,11 -64,21 -11,6 -24,-7 -14,-17 20,-21 49,-30 77,-32 18,-2 19,27 1,28z"/>
  <path class="fil7" d="M8371 1497c-13,31 -22,65 -30,98 -4,15 -28,13 -28,-3 1,-40 7,-76 26,-112 11,-21 41,-4 32,17z"/>
  <path class="fil7" d="M8290 1764c22,43 3,100 -5,145 -2,10 -18,8 -18,-2 2,-46 3,-98 16,-142 1,-3 5,-4 7,-1z"/>
  <path class="fil7" d="M8279 2050c-11,34 -21,68 -40,99 -6,9 -23,4 -19,-7 10,-36 29,-65 48,-97 3,-5 13,-2 11,5z"/>
  <path class="fil7" d="M8182 2259c-6,8 -11,16 -16,25 -4,8 -10,17 -14,26 -5,10 -23,6 -22,-6 0,-13 1,-24 7,-36 6,-11 14,-22 22,-31 14,-15 37,6 23,22z"/>
  <path class="fil7" d="M8566 1541c-116,23 -100,218 -102,304 -2,88 -25,166 -65,240 106,-82 228,-172 275,-300 35,-94 39,-273 -108,-244zm89 -36c90,48 86,163 68,250 -34,174 -214,282 -346,379 -3,2 -6,3 -9,2 -2,4 -5,7 -7,11 -11,17 -36,4 -28,-15 48,-102 80,-196 84,-309 2,-68 5,-135 24,-202 24,-82 126,-164 214,-116z"/>
  <path class="fil7" d="M8624 1741c-5,15 -12,29 -18,39 -9,17 -117,134 -99,66 12,-47 9,-193 81,-195 59,-1 52,48 36,90z"/>
  <path class="fil7" d="M9743 1927c-48,50 -58,122 -88,181 31,-27 62,-55 89,-87 20,-24 34,-54 25,-85 -5,-22 -13,-23 -26,-9zm57 63c-28,70 -96,109 -154,150 -4,2 -9,1 -12,-2 -12,7 -31,0 -26,-17 16,-46 38,-92 59,-136 15,-32 43,-102 87,-105 52,-3 60,76 46,110z"/>
  <path class="fil7" d="M7312 916c5,18 -3,33 -16,43 0,1 -1,1 -1,1 -9,7 -26,8 -35,2 0,-1 -1,-1 -2,-2 -14,-9 -22,-23 -18,-41 4,-16 18,-28 35,-29 16,0 32,10 37,26z"/>
  <path class="fil7" d="M7401 1594c1,14 -3,29 -7,43 -4,12 -24,16 -28,1 -4,-19 -2,-38 10,-54 8,-11 25,-2 25,10z"/>
  <path class="fil7" d="M7476 1517c13,7 20,17 28,28 7,9 -5,22 -15,16 -11,-8 -21,-14 -29,-26 -7,-10 5,-24 16,-18z"/>
  <path class="fil7" d="M7517 1411c16,3 13,28 -3,28 -10,0 -19,3 -29,7 -9,3 -15,9 -25,9 -7,0 -13,-5 -13,-12 0,-33 46,-36 70,-32z"/>
  <path class="fil7" d="M7399 1374c13,5 17,18 19,31 2,18 -23,19 -29,5 -2,-4 -4,-6 -7,-9 2,2 -4,1 -7,2 -14,3 -21,-14 -10,-23 10,-8 22,-11 34,-6z"/>
  <path class="fil7" d="M7350 1448c16,-2 19,22 4,27 -17,6 -41,4 -48,-16 -4,-10 7,-18 16,-17 10,2 17,8 28,6z"/>
  <path class="fil7" d="M7346 1539c-12,8 -22,11 -36,9 -15,-3 -12,-22 0,-27 6,-3 12,-6 18,-10 18,-11 35,16 18,28z"/>
  <path class="fil7" d="M9518 2794c-249,186 -482,332 -790,362 147,67 302,91 460,121 160,30 315,58 479,48 126,-8 255,-33 369,-90 131,-66 167,-180 154,-318 -13,-132 -75,-275 -197,-337 -171,-87 -353,122 -475,214zm722 146c26,283 -234,383 -470,419 -157,24 -312,12 -468,-16 -124,-22 -248,-41 -369,-76 -60,-16 -123,-34 -177,-64 -40,-21 -89,-28 -109,-69 75,-52 239,-43 333,-76 111,-38 215,-95 311,-164 89,-63 179,-125 266,-192 69,-53 134,-119 215,-155 278,-123 445,149 468,393z"/>
  <path class="fil7" d="M9945 2811c101,46 55,160 -3,219 -103,102 -396,142 -528,101 25,-89 176,-167 243,-230 80,-75 175,-140 288,-90z"/>
  <path class="fil7" d="M9228 3146c1,1 2,2 3,3 3,6 3,13 0,19 0,1 -1,2 -2,3 -12,21 -46,15 -46,-11 -1,-25 32,-34 45,-14z"/>
  <path class="fil7" d="M9428 3222c1,38 -59,41 -60,2 -1,-38 58,-40 60,-2z"/>
  <path class="fil7" d="M9700 3204c2,37 -56,39 -57,2 -1,-36 56,-39 57,-2z"/>
  <path class="fil7" d="M9900 3181c2,34 -50,35 -51,2 -1,-33 50,-35 51,-2z"/>
  <path class="fil7" d="M10064 3066c1,36 -56,38 -57,2 -1,-37 55,-39 57,-2z"/>
  <path class="fil7" d="M10103 2845c1,36 -56,38 -57,2 -1,-37 55,-39 57,-2z"/>
  <path class="fil7" d="M9941 2689c4,1 15,2 23,6 21,10 14,38 -4,46 -20,8 -40,-6 -44,-25 -4,-14 8,-33 25,-27z"/>
  <path class="fil7" d="M9731 2685c31,1 33,45 2,48 -1,0 -3,0 -4,0 -10,1 -21,-7 -24,-16 -1,-5 -1,-9 0,-13 2,-10 12,-19 22,-19 2,0 3,0 4,0z"/>
  <path class="fil7" d="M9556 2858c16,15 11,47 -12,53 -3,0 -6,1 -10,2 -19,5 -35,-10 -31,-30 0,-3 1,-6 1,-9 4,-24 35,-31 52,-16z"/>
  <path class="fil7" d="M9396 2994c-1,3 -2,6 -2,9 -5,21 -32,29 -47,14 -15,-14 -10,-41 11,-47 3,-1 6,-2 9,-3 16,-5 33,10 29,27z"/>
  <path class="fil4" d="M9871 2906c37,27 -9,68 -31,86 -34,27 -77,43 -121,51 -32,12 -65,22 -99,30 -15,4 -31,-15 -17,-27 45,-39 87,-79 136,-112 33,-23 93,-56 132,-28z"/>
  <path class="fil7" d="M8677 3721c2,62 -4,139 28,194 21,37 75,10 92,-16 21,-34 3,-84 -11,-117 -22,-57 -63,-118 -116,-153 8,29 6,65 7,92zm-23 -131c123,19 300,318 125,377 -77,25 -118,-23 -132,-95 -16,-84 -11,-175 -20,-260 -1,-9 7,-17 15,-18 3,-3 7,-5 12,-4z"/>
  <path class="fil7" d="M8758 3815c14,22 -10,51 -33,40 -6,-1 -11,-5 -13,-10 0,-1 -1,-3 -3,-6 -2,-6 -2,-10 0,-15 5,-24 37,-28 49,-9z"/>
  <path class="fil7" d="M8712 3845c0,0 -1,-1 -2,-3 1,1 1,2 2,3z"/>
  <path class="fil3" d="M2704 785c0,0 -653,-1086 -961,-645 -226,323 613,323 961,645z"/>
  <path class="fil7" d="M2369 471c17,23 36,45 54,68 7,8 20,0 21,-9 0,-36 -30,-61 -57,-79 -11,-8 -26,9 -18,20z"/>
  <path class="fil7" d="M2257 341c17,18 38,32 53,52 12,17 37,2 27,-17 -15,-27 -38,-47 -67,-58 -14,-6 -21,14 -13,23z"/>
  <path class="fil7" d="M2124 213c26,17 52,31 78,49 3,3 7,-2 5,-5 -18,-30 -42,-59 -79,-61 -10,0 -11,13 -4,17z"/>
  <path class="fil7" d="M1987 130c12,9 26,16 39,24 7,4 15,7 22,11 6,3 10,8 17,10 2,0 5,-1 6,-4 4,-15 -13,-30 -24,-38 -15,-11 -36,-14 -54,-19 -10,-2 -13,10 -6,16z"/>
  <path class="fil7" d="M1830 152c-5,8 6,19 13,13 9,-7 18,-13 28,-18 11,-6 23,-8 33,-14 6,-3 7,-14 0,-17 -30,-12 -59,13 -74,36z"/>
  <path class="fil7" d="M1785 211c7,21 12,47 10,70 -1,10 13,12 18,4 15,-29 7,-56 -7,-84 -6,-12 -25,-3 -21,10z"/>
  <path class="fil7" d="M1852 315c16,26 46,49 75,59 11,3 15,-11 9,-17 -9,-12 -19,-21 -32,-29 -13,-9 -25,-19 -39,-26 -8,-5 -18,5 -13,13z"/>
  <path class="fil7" d="M1995 385c-7,3 -8,14 1,16 14,2 28,3 42,5 15,3 31,6 46,7 11,1 13,-14 5,-19 -26,-15 -65,-20 -94,-9z"/>
  <path class="fil7" d="M2143 409c-13,4 -9,21 3,22 21,2 39,9 57,22 9,6 20,-7 14,-16 -8,-13 -17,-21 -32,-27 -14,-5 -29,-5 -42,-1z"/>
  <path class="fil7" d="M2274 496c10,1 18,8 26,14 8,7 23,0 19,-11 -7,-19 -23,-27 -43,-26 -13,0 -16,21 -2,23z"/>
  <path class="fil7" d="M1927 253c1,27 23,48 50,48 27,-1 48,-24 47,-50 0,-27 -23,-48 -49,-48 -27,1 -49,24 -48,50z"/>
  <path class="fil6" d="M7703 880c0,0 -262,-739 70,-713 243,20 -87,420 -70,713z"/>
  <path class="fil7" d="M7961 552c0,-34 53,-34 53,0 0,34 -53,34 -53,0z"/>
  <path class="fil7" d="M7691 519c0,-12 0,-27 3,-39 3,-10 5,-28 13,-35 4,-3 10,-3 13,2 5,9 1,23 1,33 -1,14 -5,29 -10,42 -3,11 -19,9 -20,-3z"/>
  <path class="fil7" d="M7689 644c-4,-24 -2,-47 3,-70 0,-4 6,-4 7,0 4,23 6,46 3,70 -1,7 -12,7 -13,0z"/>
  <path class="fil7" d="M2420 1210c-28,14 -52,33 -73,56 -12,13 1,39 19,31 29,-12 52,-31 78,-49 23,-17 2,-50 -24,-38z"/>
  <path class="fil7" d="M9637 1502c-4,-34 13,-63 25,-93 11,-28 21,-64 49,-79 7,-3 17,0 19,8 7,31 -7,67 -13,98 -7,35 -13,65 -44,87 -16,12 -34,-4 -36,-21z"/>
  <path class="fil7" d="M9544 1497c-6,-17 -10,-35 -11,-54 0,-15 -5,-35 2,-49 2,-3 6,-3 8,-2 14,7 17,27 20,41 5,20 5,41 6,61 0,15 -20,16 -25,3z"/>
  <path class="fil7" d="M9712 1573c24,-16 55,-32 84,-38 7,-2 14,8 8,13 -26,20 -53,44 -87,46 -11,1 -14,-15 -5,-21z"/>
  <path class="fil7" d="M7593 1145c-18,-22 -10,-45 -3,-71 8,-29 16,-65 34,-90 11,-16 33,-10 35,10 3,27 -6,58 -11,86 -4,24 -5,56 -30,69 -7,3 -19,4 -25,-4z"/>
  <path class="fil7" d="M7479 1164c-4,-8 -8,-15 -10,-23 -2,-8 -4,-15 -8,-21 -3,-7 -19,-26 -10,-34 12,-10 29,4 38,13 6,6 12,14 17,22 6,11 9,21 8,34 -1,17 -26,26 -35,9z"/>
  <path class="fil7" d="M7673 1223c10,-31 39,-56 64,-76 10,-8 24,2 17,13 -15,30 -27,70 -62,82 -11,4 -23,-8 -19,-19z"/>
 </g>
</svg>
