<?xml version="1.0" encoding="UTF-8"?>
<!DOCTYPE svg PUBLIC "-//W3C//DTD SVG 1.1//EN" "http://www.w3.org/Graphics/SVG/1.1/DTD/svg11.dtd">
<!-- Creator: CorelDRAW X8 -->
<svg xmlns="http://www.w3.org/2000/svg" xml:space="preserve" width="72.4319mm" height="32.2363mm" version="1.1" style="shape-rendering:geometricPrecision; text-rendering:geometricPrecision; image-rendering:optimizeQuality; fill-rule:evenodd; clip-rule:evenodd"
viewBox="0 0 2532 1127"
 xmlns:xlink="http://www.w3.org/1999/xlink">
 <defs>
  <style type="text/css">
   <![CDATA[
    .fil0 {fill:#FEFEFE}
   ]]>
  </style>
 </defs>
 <g id="Capa_x0020_1">
  <metadata id="CorelCorpID_0Corel-Layer"/>
  <g id="_686669682864">
   <path class="fil0" d="M618 428c-10,83 24,156 104,178 31,8 67,-2 91,7 50,18 64,94 36,133 -52,74 -232,-12 -205,78 9,29 49,23 71,23 55,0 118,7 160,-31 64,-58 69,-153 30,-210 -23,-34 -58,-60 -100,-64 -23,-2 -116,17 -121,-72 -11,-164 184,-60 214,-114 9,-15 5,-37 -10,-46 -18,-10 -101,-5 -126,-5 -74,0 -135,48 -144,123z"/>
   <path class="fil0" d="M1058 514c20,-9 81,-6 106,-5 43,2 35,38 36,71 0,35 0,71 0,106 0,98 11,96 -123,93 -44,-2 -37,-36 -37,-71 0,-35 0,-71 0,-106 0,-28 -10,-74 18,-88zm-85 77c0,46 0,93 0,139 -1,121 88,117 158,117 41,0 75,1 105,-29 32,-31 31,-63 31,-106 0,-36 4,-174 -5,-202 -9,-28 -34,-57 -55,-62 -28,-8 -63,-6 -87,-6 -26,0 -71,-3 -92,6 -47,19 -55,65 -55,143z"/>
   <path class="fil0" d="M35 524c-46,19 -47,58 0,72 3,44 1,96 1,141 0,33 -13,109 33,109 47,1 34,-75 34,-109 -1,-46 -1,-94 0,-141 40,-7 140,18 141,-35 2,-48 -73,-34 -140,-35 -4,-55 -14,-141 53,-156 25,-5 79,5 97,-8 26,-19 15,-58 -19,-61 -60,-6 -125,-1 -165,46 -50,59 -29,108 -35,177z"/>
   <path class="fil0" d="M1293 708c4,73 51,134 126,138 29,2 96,12 105,-25 12,-53 -59,-42 -90,-43 -98,-1 -74,-117 -74,-187 -1,-53 2,-233 -3,-270 -28,-34 -63,-23 -64,17 -2,40 0,85 0,125 0,80 -3,166 0,245z"/>
   <path class="fil0" d="M302 770c24,68 108,82 185,76 43,-3 59,-68 -18,-68 -44,0 -102,2 -110,-54 -5,-18 -3,-283 -2,-338 0,-28 9,-84 -32,-85 -44,-2 -36,47 -36,78 0,76 -10,330 13,391z"/>
   <path class="fil0" d="M544 322c-6,83 -1,191 -1,276 0,47 0,93 0,139 0,32 -13,105 31,109 48,4 36,-67 36,-98 0,-127 4,-302 0,-420 -11,-38 -46,-40 -66,-6z"/>
  </g>
  <path class="fil0" d="M1984 631c-9,-20 -38,-53 -42,-65 -10,-30 23,-33 13,-77l25 -13c1,1 4,2 5,3 14,2 7,-7 33,1 64,21 11,19 124,83 0,27 -1,21 -13,42 -23,36 12,19 -62,93 -22,24 -60,46 -77,83l-12 35c-28,-47 34,-125 6,-185zm-40 -149c-15,-10 -18,-24 -37,-31 -20,-7 -26,-1 -43,-19 -24,-25 -20,-59 -45,-79 71,-4 54,33 74,81l27 -6 24 54zm536 42l3 15 -21 3 -204 16 -7 -20c-20,-108 -18,-58 -36,-118 55,-68 186,-169 175,-220 -5,-19 -179,-183 -204,-198 -43,-6 -67,45 -95,76 -19,22 -67,70 -77,94 2,36 85,114 118,126 25,-4 80,-62 90,-87 -5,-22 -61,-74 -82,-83 8,32 44,53 55,83l-59 61c-27,-30 -68,-55 -87,-91l126 -133c21,15 144,147 151,165l-154 151c-31,-20 -39,-35 -79,-55 -143,-70 -102,81 -118,-299 -96,-40 -144,50 -32,40l21 230c-28,2 -53,5 -79,13 -22,7 -42,20 -64,25 -28,-34 -67,-68 -99,-97 -96,-88 -86,-131 -218,19 -98,112 -127,105 -63,165 12,11 38,34 52,45 29,22 76,88 112,62 12,-9 89,-88 95,-100 17,-37 -76,-104 -90,-100 -4,1 -76,63 -73,79 14,2 61,-42 78,-53 17,8 55,45 63,63l-87 82c-15,-8 -126,-111 -137,-128l162 -149 153 155c-55,79 -64,68 -83,188l-268 12c-19,25 -22,106 31,90 12,-23 9,-36 8,-61l230 -20c4,87 25,95 37,138 -59,78 -204,175 -169,232 17,27 82,75 106,102 19,21 90,96 118,83l135 -150c28,-36 -9,-64 -33,-86 -18,-18 -56,-57 -82,-59 -14,7 -81,72 -81,88 0,18 63,75 79,81 0,-24 -41,-57 -53,-81 6,-12 48,-53 59,-61 22,20 78,68 86,91l-124 131c-16,-10 -143,-145 -152,-162l150 -154c26,10 58,63 163,81l29 8 10 267c115,30 133,-49 31,-41l-18 -231c25,-1 51,-5 75,-12 25,-8 42,-21 67,-25 20,32 71,71 100,98 28,27 69,88 114,77 19,-5 193,-199 193,-199 21,-41 -83,-110 -131,-151 -20,-17 -34,-39 -63,-19 -12,8 -90,90 -95,103 -14,34 79,99 88,97 3,0 74,-60 78,-82 -22,9 -58,41 -80,57 -17,-12 -54,-44 -63,-62l89 -85c17,12 128,117 134,130l-160 147 -154 -153c16,-27 39,-47 55,-81 16,-33 25,-72 27,-108l273 -9c3,-23 15,-69 -1,-88 -10,-11 -26,-13 -35,-1 -9,10 -8,31 -9,43z"/>
  <path class="fil0" d="M1567 666c24,-53 -31,-70 -52,-22 -24,53 30,71 52,22z"/>
  <path class="fil0" d="M2393 438c-38,19 -36,91 11,70 32,-14 40,-95 -11,-70z"/>
  <path class="fil0" d="M1991 912c7,34 84,52 78,7 -5,-38 -87,-53 -78,-7z"/>
  <path class="fil0" d="M1882 187c-40,23 24,73 56,53 34,-21 -20,-74 -56,-53z"/>
  <path class="fil0" d="M2301 541c55,5 63,-68 32,-76 -29,-8 -62,43 -32,76z"/>
  <path class="fil0" d="M1600 662c55,5 64,-69 33,-76 -30,-7 -62,43 -33,76z"/>
  <path class="fil0" d="M1916 150c6,-44 -67,-65 -76,-29 -8,29 52,67 76,29z"/>
  <polygon class="fil0" points="2462,542 2483,539 2480,524 2480,536 "/>
 </g>
</svg>
