<?xml version="1.0" encoding="UTF-8" standalone="no"?>
<!-- Creator: CorelDRAW X8 -->

<svg
   xmlns:dc="http://purl.org/dc/elements/1.1/"
   xmlns:cc="http://creativecommons.org/ns#"
   xmlns:rdf="http://www.w3.org/1999/02/22-rdf-syntax-ns#"
   xmlns:svg="http://www.w3.org/2000/svg"
   xmlns="http://www.w3.org/2000/svg"
   xmlns:sodipodi="http://sodipodi.sourceforge.net/DTD/sodipodi-0.dtd"
   xmlns:inkscape="http://www.inkscape.org/namespaces/inkscape"
   xml:space="preserve"
   width="67.733337mm"
   height="67.733337mm"
   version="1.1"
   style="clip-rule:evenodd;fill-rule:evenodd;image-rendering:optimizeQuality;shape-rendering:geometricPrecision;text-rendering:geometricPrecision"
   viewBox="0 0 6615.6782 6615.8329"
   id="svg462"
   sodipodi:docname="favicon.svg"
   inkscape:version="0.92.2pre0 (973e216, 2017-07-25)"><metadata
     id="metadata466"><rdf:RDF><cc:Work
         rdf:about=""><dc:format>image/svg+xml</dc:format><dc:type
           rdf:resource="http://purl.org/dc/dcmitype/StillImage" /><dc:title></dc:title></cc:Work></rdf:RDF></metadata><sodipodi:namedview
     pagecolor="#ffffff"
     bordercolor="#666666"
     borderopacity="1"
     objecttolerance="10"
     gridtolerance="10"
     guidetolerance="10"
     inkscape:pageopacity="0"
     inkscape:pageshadow="2"
     inkscape:window-width="1366"
     inkscape:window-height="704"
     id="namedview464"
     showgrid="false"
     fit-margin-top="0"
     fit-margin-left="0"
     fit-margin-right="0"
     fit-margin-bottom="0"
     inkscape:zoom="0.62552183"
     inkscape:cx="-223.3467"
     inkscape:cy="36.548902"
     inkscape:window-x="0"
     inkscape:window-y="0"
     inkscape:window-maximized="1"
     inkscape:current-layer="svg462" /><defs
     id="defs4"><style
       type="text/css"
       id="style2"><![CDATA[
    .fil0 {fill:#FEFEFE}
    .fil1 {fill:#4A3A64}
    .fil7 {fill:#FEFEFE;fill-rule:nonzero}
    .fil3 {fill:#EE4685;fill-rule:nonzero}
    .fil6 {fill:#F18535;fill-rule:nonzero}
    .fil5 {fill:#F9DF27;fill-rule:nonzero}
    .fil4 {fill:#9F4E9C;fill-rule:nonzero}
    .fil2 {fill:#63C7C7;fill-rule:nonzero}
    .fil8 {fill:#51426B;fill-rule:nonzero}
   ]]></style></defs><g
     id="_686530554016"
     transform="matrix(2.0542143,0,0,2.0533802,-7698.1215,-1100.8454)"><path
       style="fill:#fefefe"
       inkscape:connector-curvature="0"
       id="path20"
       d="m 5402,2339 c -27,-57 -109,-151 -120,-185 -30,-86 66,-95 37,-218 l 70,-38 c 3,1 13,6 16,6 40,9 19,-19 93,5 183,58 33,54 356,236 0,77 -2,61 -39,120 -64,104 35,56 -175,268 -65,66 -172,129 -220,236 l -36,101 c -80,-134 96,-360 18,-531 z m -114,-424 c -43,-30 -53,-68 -106,-88 -57,-21 -74,-5 -124,-56 -69,-71 -57,-167 -129,-227 204,-9 154,94 213,233 l 75,-18 z m 1533,120 7,42 -60,7 -584,47 -19,-58 c -58,-308 -52,-164 -103,-338 158,-192 533,-481 499,-627 -12,-55 -511,-523 -583,-565 -122,-18 -190,128 -270,217 -55,62 -191,201 -220,268 6,102 243,326 336,360 72,-12 229,-178 258,-248 -15,-64 -173,-211 -234,-239 23,91 125,153 156,239 l -168,174 c -78,-87 -194,-157 -250,-260 l 361,-381 c 60,44 413,422 431,472 l -440,432 c -88,-58 -110,-101 -226,-158 -407,-200 -290,231 -336,-853 -275,-115 -410,141 -91,112 l 58,660 c -78,3 -149,14 -223,37 -64,19 -121,56 -184,71 -80,-98 -191,-195 -284,-279 -275,-251 -246,-374 -623,56 -279,319 -363,300 -180,471 35,33 110,98 149,127 84,63 218,253 321,178 34,-25 253,-251 270,-286 50,-104 -217,-295 -257,-285 -11,2 -217,179 -208,227 41,4 175,-120 223,-152 49,23 157,127 179,178 l -248,236 c -44,-23 -359,-318 -391,-365 l 463,-425 438,442 c -157,226 -184,192 -239,536 l -765,34 c -55,73 -64,303 88,257 36,-65 25,-101 22,-173 l 657,-56 c 12,249 72,271 107,394 -167,222 -584,501 -484,662 49,79 236,214 304,291 55,61 258,276 339,240 l 383,-430 c 81,-103 -23,-183 -92,-247 -52,-50 -161,-162 -237,-167 -38,19 -231,206 -230,251 1,52 180,213 227,232 -2,-69 -118,-164 -152,-232 17,-34 137,-152 170,-176 62,58 221,197 245,260 l -356,375 c -45,-28 -409,-414 -434,-462 l 430,-441 c 74,29 165,182 465,231 l 82,23 30,765 c 329,85 378,-142 87,-118 l -52,-660 c 74,-3 147,-15 217,-36 70,-21 119,-60 190,-70 59,92 204,201 286,280 80,76 196,251 325,219 56,-13 553,-567 554,-568 58,-118 -239,-316 -377,-432 -56,-47 -95,-111 -179,-54 -35,24 -257,258 -272,295 -38,97 227,282 251,278 10,-1 214,-171 223,-235 -61,24 -166,118 -227,161 -50,-33 -156,-124 -180,-177 l 253,-241 c 50,33 368,333 385,370 l -459,422 -440,-438 c 45,-76 112,-135 157,-232 45,-95 72,-205 78,-310 l 779,-25 c 10,-64 43,-198 -2,-251 -27,-32 -73,-36 -101,-3 -23,28 -21,90 -23,124 z"
       class="fil0" /><path
       style="fill:#4a3a64"
       inkscape:connector-curvature="0"
       id="path22"
       d="m 5319,1936 c 29,123 -67,132 -37,218 11,34 93,128 120,185 78,171 -98,397 -18,531 l 36,-101 c 48,-107 155,-170 220,-236 210,-212 111,-164 175,-268 37,-59 39,-43 39,-120 -323,-182 -173,-178 -356,-236 -74,-24 -53,4 -93,-5 -3,0 -13,-5 -16,-6 z"
       class="fil1" /><path
       style="fill:#4a3a64"
       inkscape:connector-curvature="0"
       id="path24"
       d="m 5288,1915 -71,-156 -75,18 c -59,-139 -9,-242 -213,-233 72,60 60,156 129,227 50,51 67,35 124,56 53,20 63,58 106,88 z"
       class="fil1" /><path
       style="fill:#fefefe"
       inkscape:connector-curvature="0"
       id="path26"
       d="m 4210,2441 c 69,-151 -90,-202 -150,-65 -68,152 88,204 150,65 z"
       class="fil0" /><path
       style="fill:#fefefe"
       inkscape:connector-curvature="0"
       id="path28"
       d="m 6572,1788 c -110,54 -104,261 30,201 91,-40 116,-271 -30,-201 z"
       class="fil0" /><path
       style="fill:#fefefe"
       inkscape:connector-curvature="0"
       id="path30"
       d="m 5510,3369 c 17,92 242,154 221,16 -17,-108 -246,-147 -221,-16 z"
       class="fil0" /><path
       style="fill:#fefefe"
       inkscape:connector-curvature="0"
       id="path32"
       d="m 5422,3143 c 20,98 239,149 222,21 -13,-110 -248,-152 -222,-21 z"
       class="fil0" /><path
       style="fill:#fefefe"
       inkscape:connector-curvature="0"
       id="path34"
       d="m 5110,1070 c -114,66 68,210 161,152 97,-61 -58,-212 -161,-152 z"
       class="fil0" /><path
       style="fill:#fefefe"
       inkscape:connector-curvature="0"
       id="path36"
       d="m 6308,2083 c 158,15 179,-196 93,-218 -86,-22 -178,123 -93,218 z"
       class="fil0" /><path
       style="fill:#fefefe"
       inkscape:connector-curvature="0"
       id="path38"
       d="m 4305,2430 c 156,14 182,-197 92,-219 -85,-21 -175,125 -92,219 z"
       class="fil0" /><path
       style="fill:#fefefe"
       inkscape:connector-curvature="0"
       id="path40"
       d="m 5208,965 c 18,-125 -191,-185 -219,-82 -21,82 149,191 219,82 z"
       class="fil0" /><polygon
       style="fill:#fefefe"
       id="polygon42"
       points="6768,2084 6828,2077 6821,2035 6821,2068 "
       class="fil0" /></g></svg>