<?xml version="1.0" encoding="UTF-8"?>
<!DOCTYPE svg PUBLIC "-//W3C//DTD SVG 1.1//EN" "http://www.w3.org/Graphics/SVG/1.1/DTD/svg11.dtd">
<!-- Creator: CorelDRAW X8 -->
<svg xmlns="http://www.w3.org/2000/svg" xml:space="preserve" width="39.9448mm" height="50.3546mm" version="1.1" style="shape-rendering:geometricPrecision; text-rendering:geometricPrecision; image-rendering:optimizeQuality; fill-rule:evenodd; clip-rule:evenodd"
viewBox="0 0 2767 3488"
 xmlns:xlink="http://www.w3.org/1999/xlink">
 <defs>
  <style type="text/css">
   <![CDATA[
    .str0 {stroke:#FEFEFE;stroke-width:5.27903}
    .str1 {stroke:#021535;stroke-width:5.27903}
    .fil2 {fill:#021535}
    .fil0 {fill:#021535}
    .fil3 {fill:#3C6DB3}
    .fil1 {fill:#FEFEFF}
   ]]>
  </style>
 </defs>
 <g id="Contenido_x0020_de_x0020_PowerClip">
  <metadata id="CorelCorpID_0Corel-Layer"/>
  <path class="fil0" d="M1250 3423c10,41 44,82 87,47 24,-22 18,-102 18,-144l0 -468c0,-27 -2,-48 -19,-60 -17,-13 -44,-13 -60,-1 -33,23 -21,95 -21,139 0,39 5,122 -3,157 -21,-28 -33,-42 -70,-58 -94,-40 -223,3 -272,112 -31,69 -27,159 7,224 43,80 88,110 185,116 48,2 111,-27 148,-64zm-166 -307c-162,49 -105,326 76,276 159,-44 106,-332 -76,-276z"/>
  <path class="fil0" d="M2494 3116c87,-28 151,30 167,97 21,88 -24,160 -92,179 -177,50 -241,-224 -75,-276zm169 310c16,22 18,51 50,55 37,4 51,-22 52,-56 3,-56 4,-160 -3,-213 -40,-270 -452,-245 -463,32 -8,207 208,325 364,182z"/>
  <path class="fil0" d="M457 3212c22,-144 225,-145 248,1l-248 -1zm231 253c25,-11 45,-22 65,-40 14,-13 42,-33 27,-64 -29,-60 -81,14 -136,32 -92,29 -185,-17 -188,-109 75,0 303,2 340,1 29,-93 -49,-208 -106,-237 -186,-95 -392,78 -325,282 14,43 38,74 69,101 67,58 173,67 254,34z"/>
  <path class="fil0" d="M1630 3116c85,-27 152,29 168,96 20,88 -26,162 -93,180 -178,48 -240,-224 -75,-276zm215 289c143,-193 -10,-389 -184,-384 -246,8 -303,331 -104,437 89,47 225,31 288,-53z"/>
  <path class="fil0" d="M0 3075c-1,59 66,41 102,44 0,70 -1,140 -1,202 0,55 -18,157 47,160 70,3 53,-93 53,-149 0,-71 0,-142 0,-213 48,0 104,9 107,-41 3,-54 -62,-45 -105,-45 -25,-212 139,-113 153,-181 16,-83 -124,-88 -208,1 -51,54 -46,96 -45,180 -29,0 -102,-8 -103,42z"/>
  <path class="fil0" d="M1982 3090l0 324c0,41 17,76 63,65 89,-20 -20,-252 80,-333 62,-51 120,-22 146,-53 11,-13 13,-34 5,-50 -23,-43 -123,-26 -190,45 -10,-35 -12,-61 -51,-63 -39,-2 -53,28 -53,65z"/>
  <g id="_1047868358464">
   <path class="fil0 str0" d="M79 2289l0 -985c0,-712 589,-1301 1301,-1301 718,0 1312,582 1312,1302 0,717 -583,1311 -1302,1311l-984 0c-189,0 -327,-138 -327,-327z"/>
  </g>
  <path class="fil0 str1" d="M97 2289c0,179 130,309 309,309l984 0c702,0 1284,-579 1284,-1293 0,-703 -579,-1284 -1294,-1284 -702,0 -1283,581 -1283,1283l0 985z"/>
  <path class="fil1" d="M829 1168c-43,44 -102,61 -92,156 9,87 57,93 117,127 61,-7 219,-9 268,9 31,105 15,387 -39,476 -76,122 -181,156 -370,145 -76,1 -138,31 -153,97 -24,105 46,124 73,168 112,6 173,60 372,-5 123,-40 193,-104 260,-175 174,-182 151,-423 151,-716l280 2c55,-35 110,-46 113,-135 4,-75 -33,-98 -75,-132 -15,-12 -7,-5 -18,-16 -48,5 -257,11 -285,-19 -28,-30 -34,-354 27,-460 66,-117 174,-167 360,-155 81,6 142,-20 164,-84 32,-89 -33,-123 -58,-172 -52,-7 -106,-32 -176,-33 -304,-7 -559,214 -607,493 -22,124 9,332 -16,428l-296 1z"/>
  <path class="fil2" d="M1716 1169c104,-7 156,-25 224,-75 45,-33 97,-113 110,-197 20,-125 -36,-243 -131,-311 -32,-23 -79,-32 -101,-51 -186,-12 -294,38 -360,155 -61,106 -55,430 -27,460 28,30 237,24 285,19z"/>
  <path class="fil2" d="M713 2081c189,11 294,-23 370,-145 54,-89 70,-371 39,-476 -49,-18 -207,-16 -268,-9 -386,-14 -458,408 -238,573 35,26 69,34 97,57z"/>
  <path class="fil3" d="M633 2346c-27,-44 -97,-63 -73,-168 15,-66 77,-96 153,-97 -28,-23 -62,-31 -97,-57 -220,-165 -148,-587 238,-573 -60,-34 -108,-40 -117,-127 -10,-95 49,-112 92,-156 -311,-13 -564,226 -609,494 -60,355 161,599 413,684z"/>
  <path class="fil3" d="M1818 535c22,19 69,28 101,51 95,68 151,186 131,311 -13,84 -65,164 -110,197 -68,50 -120,68 -224,75 11,11 3,4 18,16 42,34 79,57 75,132 -3,89 -58,100 -113,135 835,-37 779,-1034 228,-1173 25,49 90,83 58,172 -22,64 -83,90 -164,84z"/>
 </g>
</svg>
