<?xml version="1.0" encoding="UTF-8" standalone="no"?>
<svg
   xmlns:dc="http://purl.org/dc/elements/1.1/"
   xmlns:cc="http://creativecommons.org/ns#"
   xmlns:rdf="http://www.w3.org/1999/02/22-rdf-syntax-ns#"
   xmlns:svg="http://www.w3.org/2000/svg"
   xmlns="http://www.w3.org/2000/svg"
   xmlns:sodipodi="http://sodipodi.sourceforge.net/DTD/sodipodi-0.dtd"
   xmlns:inkscape="http://www.inkscape.org/namespaces/inkscape"
   width="275.38281pt"
   height="95.269531pt"
   viewBox="0 0 275.38282 95.269535"
   version="1.2"
   id="svg78"
   sodipodi:docname="UPN_FondoLucuma_Horizontal_CMYK.svg"
   inkscape:version="0.92.2pre0 (973e216, 2017-07-25)"
   inkscape:export-filename="/home/zodiac/Development/softbutterfly/flisol-lima-2018/resources/UPN_FondoLucuma_Horizontal_CMYK.png"
   inkscape:export-xdpi="90"
   inkscape:export-ydpi="90">
  <metadata
     id="metadata82">
    <rdf:RDF>
      <cc:Work
         rdf:about="">
        <dc:format>image/svg+xml</dc:format>
        <dc:type
           rdf:resource="http://purl.org/dc/dcmitype/StillImage" />
        <dc:title></dc:title>
      </cc:Work>
    </rdf:RDF>
  </metadata>
  <sodipodi:namedview
     pagecolor="#ffffff"
     bordercolor="#666666"
     borderopacity="1"
     objecttolerance="10"
     gridtolerance="10"
     guidetolerance="10"
     inkscape:pageopacity="0"
     inkscape:pageshadow="2"
     inkscape:window-width="1366"
     inkscape:window-height="704"
     id="namedview80"
     showgrid="false"
     inkscape:zoom="0.97059865"
     inkscape:cx="-76.429674"
     inkscape:cy="130.04463"
     inkscape:window-x="0"
     inkscape:window-y="0"
     inkscape:window-maximized="1"
     inkscape:current-layer="svg78"
     fit-margin-top="0"
     fit-margin-left="0"
     fit-margin-right="0"
     fit-margin-bottom="0" />
  <defs
     id="defs5">
    <clipPath
       id="clip1">
      <path
         d="M 0,0 H 275.38281 V 95.269531 H 0 Z m 0,0"
         id="path2"
         inkscape:connector-curvature="0" />
    </clipPath>
  </defs>
  <g
     id="g1158"
     inkscape:export-xdpi="90"
     inkscape:export-ydpi="90">
    <g
       clip-path="url(#clip1)"
       id="g9"
       style="clip-rule:nonzero">
      <path
         style="fill:#fab807;fill-opacity:1;fill-rule:nonzero;stroke:none"
         d="M 0,95.269531 H 275.38281 V 0 H 0 Z m 0,0"
         id="path7"
         inkscape:connector-curvature="0" />
    </g>
    <g
       id="g1112">
      <g
         id="g1016">
        <path
           style="fill:#383335;fill-opacity:1;fill-rule:nonzero;stroke:none"
           d="m 51.863281,21.289062 v -8.636718 l -7.652343,12.648437 z m 0,0"
           id="path17"
           inkscape:connector-curvature="0" />
        <path
           style="fill:#ffffff;fill-opacity:1;fill-rule:nonzero;stroke:none"
           d="m 51.863281,21.289062 v -8.636718 l 7.652344,12.648437 z m 0,0"
           id="path19"
           inkscape:connector-curvature="0" />
        <g
           id="g1007">
          <path
             inkscape:connector-curvature="0"
             id="path11"
             d="m 13.867188,35.363281 c 1.777343,0.316407 4.277343,1.472657 4.277343,5.503907 h 0.0039 v 27.941406 c 0.75,-0.15625 2.167968,-0.484375 4.003906,-1.054688 V 49.273438 l 10.765625,13.734374 c 2.84375,-1.6875 5.71875,-3.828124 8.277343,-6.511718 L 21.40625,31.628906 h -8.753906 v 3.640625 c 0.121094,0 0.230468,0.0039 0.34375,0.0039 0.332031,0.01172 0.460937,0.04297 0.871094,0.08984"
             style="fill:#383335;fill-opacity:1;fill-rule:nonzero;stroke:none" />
          <path
             inkscape:connector-curvature="0"
             id="path13"
             d="m 54.054688,31.671875 c 0.07422,2.289063 -0.0078,10.761719 -4.34375,19 v 16.5625 l -6.433594,-8.082031 c -2.375,2.230468 -5.273438,4.246094 -8.796875,5.890625 l 13.8125,17.617187 h 5.433593 V 40.746094 c 0.125,-3.78125 2.535157,-4.894532 4.261719,-5.207032 0.53125,-0.05859 0.9375,-0.09375 1.566407,-0.09375 v -3.773437 z m 0,0"
             style="fill:#383335;fill-opacity:1;fill-rule:nonzero;stroke:none" />
          <path
             inkscape:connector-curvature="0"
             id="path15"
             d="m 50.167969,31.625 -0.0078,0.0078 v -0.0039 h -5.945312 v 3.777344 h -0.0039 0.0039 c 0.625,0 0.683594,0.03125 1.210937,0.08984 1.453125,0.257812 3.378907,1.089844 4.039063,3.578125 0.71875,-2.292969 0.71875,-6.417969 0.703125,-7.449219"
             style="fill:#383335;fill-opacity:1;fill-rule:nonzero;stroke:none" />
          <path
             inkscape:connector-curvature="0"
             id="path21"
             d="m 27.648438,78.976562 c -0.628907,0 -0.683594,-0.03125 -1.214844,-0.09375 -1.773438,-0.3125 -4.277344,-1.472656 -4.277344,-5.503906 l -0.0039,0.0039 V 68.59765 c -1.28125,0.199219 -2.617188,0.355469 -4.003906,0.472656 V 73.3789 c 0,4.03125 -2.5,5.1875 -4.277344,5.503906 -0.527344,0.0625 -0.589844,0.09375 -1.21875,0.09375 v 3.644532 h 14.996094 v -3.640625 l 0.0039,-0.0039 z m 0,0"
             style="fill:#383335;fill-opacity:1;fill-rule:nonzero;stroke:none" />
        </g>
      </g>
      <path
         inkscape:connector-curvature="0"
         id="path23"
         d="m 68.707031,82.660156 h 0.59375 v -51.03125 h -0.59375 z m 0,0"
         style="fill:#383335;fill-opacity:1;fill-rule:nonzero;stroke:none" />
      <g
         id="g1069">
        <g
           id="g996">
          <path
             inkscape:connector-curvature="0"
             id="path25"
             d="m 88.960938,57.753906 c 0,3.730469 -1.90625,5.816406 -5.269532,5.816406 -3.363281,0 -5.265625,-2.085937 -5.265625,-5.816406 v -6.726562 h 1.863281 v 6.726562 c 0,2.617188 1.234376,4.035156 3.402344,4.035156 2.191406,0 3.40625,-1.417968 3.40625,-4.035156 v -6.726562 h 1.863282 z m 0,0"
             style="fill:#383335;fill-opacity:1;fill-rule:nonzero;stroke:none" />
          <path
             inkscape:connector-curvature="0"
             id="path27"
             d="m 100.87891,63.390625 -7.011722,-9.183594 v 9.183594 H 92.003906 V 51.027344 h 1.703125 l 7.011719,9.21875 v -9.21875 h 1.86328 v 12.363281 z m 0,0"
             style="fill:#383335;fill-opacity:1;fill-rule:nonzero;stroke:none" />
          <path
             inkscape:connector-curvature="0"
             id="path29"
             d="m 106.19141,51.027344 h 1.86328 v 12.363281 h -1.86328 z m 0,0"
             style="fill:#383335;fill-opacity:1;fill-rule:nonzero;stroke:none" />
          <path
             inkscape:connector-curvature="0"
             id="path31"
             d="m 115.04688,63.390625 -5.08594,-12.363281 h 2.08594 l 3.60937,8.976562 c 0.17969,0.488282 0.34375,1.015625 0.46484,1.519532 0.14063,-0.503907 0.30469,-1.03125 0.46485,-1.519532 l 3.6875,-8.976562 h 2.02734 l -5.10547,12.363281 z m 0,0"
             style="fill:#383335;fill-opacity:1;fill-rule:nonzero;stroke:none" />
          <path
             inkscape:connector-curvature="0"
             id="path33"
             d="M 124.1875,63.390625 V 51.027344 h 8.34766 v 1.742187 h -6.48438 v 3.546875 h 5.65625 v 1.742188 h -5.65625 v 3.585937 h 6.66797 v 1.746094 z m 0,0"
             style="fill:#383335;fill-opacity:1;fill-rule:nonzero;stroke:none" />
          <path
             inkscape:connector-curvature="0"
             id="path35"
             d="m 140.01562,57.753906 c 2.00782,0 3.14063,-0.890625 3.14063,-2.449218 0,-1.601563 -1.13281,-2.511719 -3.14063,-2.535157 h -2.73437 v 4.984375 z m 5.32813,5.632813 h -2.04688 L 140.15625,59.5 h -2.875 v 3.886719 h -1.86719 V 51.027344 h 4.5586 c 3.26562,0 5.08984,1.542968 5.08984,4.277344 0,1.945312 -1.15625,3.382812 -3.01953,3.949218 l 3.30078,3.992188 z m 0,0"
             style="fill:#383335;fill-opacity:1;fill-rule:nonzero;stroke:none" />
          <path
             inkscape:connector-curvature="0"
             id="path37"
             d="m 154.99219,53.296875 c -1.5,-0.609375 -2.69532,-0.828125 -3.97266,-0.828125 -1.29687,0 -2.02734,0.746094 -2.02734,1.496094 0,1.460937 1.03515,1.640625 3.30468,2.390625 2.14844,0.710937 3.60547,1.441406 3.60547,3.648437 0,2.453125 -1.82031,3.566406 -3.99218,3.566406 -1.73829,0 -3.89063,-0.667968 -5.42969,-1.539062 l 0.73047,-1.457031 c 1.62109,0.789062 3.38672,1.296875 4.62109,1.296875 1.29688,0 2.14844,-0.546875 2.14844,-1.582032 0,-1.335937 -0.69141,-1.765624 -3.28516,-2.535156 -1.96484,-0.585937 -3.625,-1.152344 -3.625,-3.605468 0,-1.964844 1.51953,-3.324219 3.97266,-3.324219 1.3164,0 2.9375,0.304687 4.51562,0.972656 z m 0,0"
             style="fill:#383335;fill-opacity:1;fill-rule:nonzero;stroke:none" />
          <path
             inkscape:connector-curvature="0"
             id="path39"
             d="m 158.58203,51.027344 h 1.86328 v 12.363281 h -1.86328 z m 0,0"
             style="fill:#383335;fill-opacity:1;fill-rule:nonzero;stroke:none" />
          <path
             inkscape:connector-curvature="0"
             id="path41"
             d="m 167.94531,61.644531 c 3.07813,0 4.80078,-1.640625 4.80078,-4.539062 0,-2.773438 -1.72265,-4.335938 -4.80078,-4.335938 h -2.02734 v 8.875 z m 0,-10.617187 c 4.29688,0 6.70703,2.1875 6.70703,6.078125 0,4.011719 -2.41015,6.285156 -6.70703,6.285156 h -3.89062 V 51.027344 Z m 0,0"
             style="fill:#383335;fill-opacity:1;fill-rule:nonzero;stroke:none" />
          <path
             inkscape:connector-curvature="0"
             id="path43"
             d="m 182.07031,53.824219 c -0.22265,-0.609375 -0.36328,-1.09375 -0.46875,-1.480469 -0.0977,0.386719 -0.24219,0.871094 -0.46484,1.480469 L 179.10937,58.75 h 4.98829 z m -4.84375,9.5625 h -2.00781 l 5.14844,-12.359375 h 2.49218 l 5.14844,12.359375 H 186 l -1.19531,-2.917969 h -6.38282 z m 0,0"
             style="fill:#383335;fill-opacity:1;fill-rule:nonzero;stroke:none" />
          <path
             inkscape:connector-curvature="0"
             id="path45"
             d="m 193.88672,61.644531 c 3.07812,0 4.80078,-1.640625 4.80078,-4.539062 0,-2.773438 -1.72266,-4.335938 -4.80078,-4.335938 h -2.02735 v 8.875 z m 0,-10.617187 c 4.29297,0 6.70703,2.1875 6.70703,6.078125 0,4.011719 -2.41406,6.285156 -6.70703,6.285156 h -3.89063 V 51.027344 Z m 0,0"
             style="fill:#383335;fill-opacity:1;fill-rule:nonzero;stroke:none" />
        </g>
        <g
           id="g1036">
          <g
             id="g983">
            <path
               style="fill:#383335;fill-opacity:1;fill-rule:nonzero;stroke:none"
               d="m 82.761719,77.351562 c 2.046875,0 3.199219,-0.949218 3.179687,-2.652343 0,-1.703125 -1.175781,-2.675781 -3.242187,-2.675781 h -2.410157 v 5.328124 z m -0.0625,-7.070312 c 3.242187,0 5.066406,1.582031 5.066406,4.417969 0,2.816406 -1.804687,4.398437 -4.984375,4.398437 h -2.492188 v 3.542969 H 78.425781 V 70.28125 Z m 0,0"
               id="path47"
               inkscape:connector-curvature="0" />
            <path
               style="fill:#383335;fill-opacity:1;fill-rule:nonzero;stroke:none"
               d="m 94.839844,77.007812 c 2.003906,0 3.140625,-0.890624 3.140625,-2.449218 0,-1.601563 -1.136719,-2.511719 -3.140625,-2.535156 h -2.738282 v 4.984374 z m 5.328126,5.632813 h -2.046876 l -3.140625,-3.886719 h -2.878907 v 3.886719 H 90.238281 V 70.28125 h 4.558594 c 3.261719,0 5.085937,1.542969 5.085937,4.277344 0,1.945312 -1.152343,3.382812 -3.019531,3.949218 L 100.16797,82.5 Z m 0,0"
               id="path49"
               inkscape:connector-curvature="0" />
            <path
               style="fill:#383335;fill-opacity:1;fill-rule:nonzero;stroke:none"
               d="m 102.54297,70.28125 h 1.86328 v 12.363281 h -1.86328 z m 0,0"
               id="path51"
               inkscape:connector-curvature="0" />
            <path
               style="fill:#383335;fill-opacity:1;fill-rule:nonzero;stroke:none"
               d="M 111.47656,82.644531 106.39063,70.28125 h 2.08593 l 3.60938,8.976562 c 0.18359,0.488282 0.34375,1.015626 0.46484,1.519532 0.14063,-0.503906 0.30469,-1.03125 0.46485,-1.519532 l 3.6875,-8.976562 h 2.02734 L 113.625,82.644531 Z m 0,0"
               id="path53"
               inkscape:connector-curvature="0" />
            <path
               style="fill:#383335;fill-opacity:1;fill-rule:nonzero;stroke:none"
               d="m 124.71094,73.078125 c -0.22266,-0.609375 -0.36328,-1.09375 -0.46485,-1.480469 -0.10156,0.386719 -0.24218,0.871094 -0.46484,1.480469 l -2.02734,4.925781 h 4.98437 z m -4.83985,9.5625 h -2.00781 l 5.14844,-12.359375 h 2.49219 l 5.14453,12.359375 h -2.00391 l -1.19531,-2.917969 h -6.38281 z m 0,0"
               id="path55"
               inkscape:connector-curvature="0" />
            <path
               style="fill:#383335;fill-opacity:1;fill-rule:nonzero;stroke:none"
               d="m 136.52734,80.898438 c 3.07813,0 4.80078,-1.640626 4.80078,-4.539063 0,-2.773437 -1.72265,-4.335937 -4.80078,-4.335937 H 134.5 v 8.875 z m 0,-10.617188 c 4.29688,0 6.70703,2.1875 6.70703,6.078125 0,4.011719 -2.41015,6.285156 -6.70703,6.285156 h -3.89062 V 70.28125 Z m 0,0"
               id="path57"
               inkscape:connector-curvature="0" />
            <path
               style="fill:#383335;fill-opacity:1;fill-rule:nonzero;stroke:none"
               d="m 150.71484,73.078125 c -0.22265,-0.609375 -0.36328,-1.09375 -0.46484,-1.480469 -0.10156,0.386719 -0.24219,0.871094 -0.46875,1.480469 l -2.02344,4.925781 h 4.98438 z m -4.84375,9.5625 h -2.00781 l 5.14844,-12.359375 h 2.49219 l 5.14843,12.359375 h -2.00781 l -1.19531,-2.917969 h -6.38281 z m 0,0"
               id="path59"
               inkscape:connector-curvature="0" />
          </g>
          <g
             id="g1001">
            <path
               style="fill:#383335;fill-opacity:1;fill-rule:nonzero;stroke:none"
               d="m 168.4375,80.898438 c 3.07812,0 4.80078,-1.640626 4.80078,-4.539063 0,-2.773437 -1.72266,-4.335937 -4.80078,-4.335937 h -2.02734 v 8.875 z m 0,-10.617188 c 4.29297,0 6.70703,2.1875 6.70703,6.078125 0,4.011719 -2.41406,6.285156 -6.70703,6.285156 h -3.89063 V 70.28125 Z m 0,0"
               id="path61"
               inkscape:connector-curvature="0" />
            <path
               style="fill:#383335;fill-opacity:1;fill-rule:nonzero;stroke:none"
               d="M 177.69922,82.644531 V 70.28125 h 8.34765 v 1.742188 h -6.48437 v 3.546874 h 5.65625 V 77.3125 h -5.65625 v 3.585938 h 6.66797 v 1.746093 z m 0,0"
               id="path63"
               inkscape:connector-curvature="0" />
            <path
               style="fill:#383335;fill-opacity:1;fill-rule:nonzero;stroke:none"
               d="M 188.92578,82.644531 V 70.28125 h 1.86719 v 10.578125 h 6.05859 v 1.785156 z m 0,0"
               id="path65"
               inkscape:connector-curvature="0" />
          </g>
          <g
             id="g974">
            <path
               style="fill:#383335;fill-opacity:1;fill-rule:nonzero;stroke:none"
               d="m 213.44141,82.644531 -7.01172,-9.183593 v 9.183593 h -1.86328 V 70.28125 h 1.70312 L 213.28125,79.5 v -9.21875 h 1.86328 v 12.363281 z m 0,0"
               id="path67"
               inkscape:connector-curvature="0" />
            <path
               style="fill:#383335;fill-opacity:1;fill-rule:nonzero;stroke:none"
               d="m 227.66797,76.480469 c 0,-3.058594 -1.4375,-4.660157 -3.99219,-4.660157 -2.53125,0 -3.96875,1.601563 -3.96875,4.660157 0,3.023437 1.4375,4.601562 3.96875,4.601562 2.55469,0 3.99219,-1.578125 3.99219,-4.601562 m 1.90625,0 c 0,4.054687 -2.16797,6.34375 -5.89844,6.34375 -3.70703,0 -5.875,-2.289063 -5.875,-6.34375 0,-4.109375 2.16797,-6.402344 5.875,-6.402344 3.73047,0 5.89844,2.292969 5.89844,6.402344"
               id="path69"
               inkscape:connector-curvature="0" />
            <path
               style="fill:#383335;fill-opacity:1;fill-rule:nonzero;stroke:none"
               d="m 236.73047,77.007812 c 2.0039,0 3.14062,-0.890624 3.14062,-2.449218 0,-1.601563 -1.13672,-2.511719 -3.14062,-2.535156 h -2.73828 v 4.984374 z m 5.32812,5.632813 h -2.04687 l -3.14063,-3.886719 h -2.8789 v 3.886719 h -1.86328 V 70.28125 h 4.55859 c 3.26562,0 5.08594,1.542969 5.08594,4.277344 0,1.945312 -1.15235,3.382812 -3.01953,3.949218 L 242.05859,82.5 Z m 0,0"
               id="path71"
               inkscape:connector-curvature="0" />
            <path
               style="fill:#383335;fill-opacity:1;fill-rule:nonzero;stroke:none"
               d="m 248.52344,72.023438 v 10.617187 h -1.86328 V 72.023438 h -4.31641 V 70.28125 h 10.49609 v 1.742188 z m 0,0"
               id="path73"
               inkscape:connector-curvature="0" />
            <path
               style="fill:#383335;fill-opacity:1;fill-rule:nonzero;stroke:none"
               d="M 254.48437,82.644531 V 70.28125 h 8.35157 v 1.742188 h -6.48828 v 3.546874 h 5.65625 V 77.3125 h -5.65625 v 3.585938 h 6.66796 v 1.746093 z m 0,0"
               id="path75"
               inkscape:connector-curvature="0" />
          </g>
        </g>
      </g>
    </g>
  </g>
</svg>
