<?xml version="1.0" standalone="no"?>
<!DOCTYPE svg PUBLIC "-//W3C//DTD SVG 20010904//EN"
 "http://www.w3.org/TR/2001/REC-SVG-20010904/DTD/svg10.dtd">
<svg version="1.0" xmlns="http://www.w3.org/2000/svg"
 width="700.000000pt" height="700.000000pt" viewBox="0 0 700.000000 700.000000"
 preserveAspectRatio="xMidYMid meet">
<metadata>
Created by potrace 1.11, written by Peter Selinger 2001-2013
</metadata>
<g transform="translate(0.000000,700.000000) scale(0.100000,-0.100000)"
fill="#000000" stroke="none">
<path d="M3120 6984 c-67 -18 -132 -55 -154 -89 -78 -119 44 -208 282 -206 50
1 92 -2 93 -6 0 -5 2 -15 4 -24 1 -8 6 -56 10 -105 3 -49 8 -105 10 -124 3
-34 13 -143 21 -239 10 -126 16 -188 19 -211 2 -14 7 -65 11 -115 3 -49 8
-106 9 -124 2 -19 6 -67 10 -107 7 -82 10 -115 19 -234 4 -47 9 -97 12 -112 4
-19 1 -28 -8 -29 -7 -1 -26 -3 -43 -4 -16 -2 -59 -6 -95 -9 -36 -3 -76 -8 -90
-11 -14 -3 -50 -10 -80 -16 -94 -18 -220 -59 -330 -106 -58 -25 -135 -56 -172
-68 l-67 -23 -38 46 c-50 63 -307 319 -413 412 -96 85 -219 202 -429 408 -192
189 -254 230 -349 233 -78 2 -151 -32 -268 -127 -85 -68 -276 -263 -423 -432
-35 -41 -210 -231 -272 -297 -306 -321 -337 -357 -365 -424 -36 -87 -6 -150
146 -301 118 -119 166 -162 330 -296 52 -42 136 -117 185 -164 50 -48 108
-103 130 -121 22 -19 45 -39 50 -45 23 -25 115 -85 160 -104 72 -31 128 -32
185 -3 72 36 522 496 604 617 28 42 33 86 16 146 -21 77 -143 225 -265 323
-33 27 -68 55 -77 62 -33 27 -162 96 -189 102 -22 4 -40 -4 -86 -40 -81 -62
-292 -271 -341 -337 -47 -63 -63 -110 -39 -110 34 0 147 76 343 230 60 47 114
89 120 92 20 13 160 -97 263 -205 48 -51 131 -157 131 -169 0 -8 9 1 -185
-183 -87 -82 -201 -191 -254 -242 -81 -77 -99 -90 -115 -81 -18 10 -219 180
-262 223 -11 11 -45 42 -75 69 -115 103 -423 403 -457 445 l-36 43 65 62 c36
33 92 86 125 116 33 30 104 95 157 144 54 49 106 96 116 105 10 9 67 61 127
117 60 56 121 112 135 125 97 87 228 208 251 230 l27 27 448 -453 c246 -249
460 -466 476 -482 l27 -30 -128 -175 c-118 -160 -216 -303 -218 -317 0 -3 -11
-28 -23 -56 -21 -46 -59 -157 -66 -194 -2 -9 -10 -43 -18 -76 -8 -33 -18 -76
-21 -95 -3 -19 -8 -46 -11 -60 -3 -14 -10 -57 -16 -96 -6 -39 -14 -76 -17 -81
-4 -6 -69 -14 -152 -17 -80 -4 -181 -9 -225 -11 -44 -3 -145 -8 -225 -11 -80
-3 -179 -7 -220 -9 -274 -12 -374 -16 -440 -20 -41 -2 -147 -7 -235 -10 -88
-4 -164 -9 -168 -12 -16 -9 -46 -92 -61 -165 -32 -154 -1 -315 70 -365 28 -20
99 -45 106 -37 2 2 19 5 37 6 66 5 100 103 95 274 -3 82 0 111 9 111 19 0 189
14 218 18 14 2 66 6 115 10 49 4 105 9 124 10 19 2 71 7 115 10 44 4 96 8 115
10 19 2 73 6 120 10 47 3 101 8 120 10 19 2 71 7 115 10 44 4 96 8 115 10 19
2 76 7 125 10 50 4 100 8 113 10 20 3 22 -1 23 -38 1 -77 13 -175 35 -292 13
-70 57 -198 98 -287 24 -52 56 -127 70 -167 l26 -71 -74 -87 c-41 -49 -219
-232 -396 -408 -177 -176 -357 -362 -401 -414 -134 -159 -204 -289 -212 -393
-11 -125 49 -195 488 -578 120 -105 136 -121 295 -286 251 -260 463 -417 583
-430 53 -6 54 -6 189 146 134 152 230 260 253 286 11 12 34 37 50 56 17 18 64
71 106 118 42 47 89 100 105 119 16 19 36 41 45 50 58 59 170 194 184 221 10
18 19 58 22 89 6 64 -8 105 -61 185 -35 52 -228 241 -425 414 -55 49 -165 115
-222 135 -72 24 -79 22 -181 -72 -237 -218 -381 -391 -381 -457 0 -65 189
-281 363 -414 25 -19 47 -37 50 -40 3 -3 22 -15 42 -27 l37 -21 -14 44 c-13
44 -54 121 -78 146 -7 7 -28 33 -47 58 -36 46 -49 62 -95 115 -14 17 -42 54
-62 82 -30 45 -35 56 -26 75 14 30 135 161 256 276 l98 93 42 -37 c231 -207
430 -414 475 -495 l19 -35 -86 -90 c-47 -50 -158 -167 -246 -259 -88 -93 -204
-215 -258 -271 -53 -55 -117 -123 -140 -149 l-43 -47 -64 58 c-126 116 -418
419 -635 659 -54 61 -102 112 -105 115 -5 4 -43 50 -127 153 -8 11 -13 20 -11
22 2 2 129 133 283 291 154 158 363 372 465 475 l185 189 31 -16 c18 -8 74
-49 125 -91 123 -98 272 -197 369 -244 90 -44 251 -99 360 -123 129 -29 276
-67 290 -76 8 -5 15 -29 16 -57 6 -156 16 -411 19 -488 7 -215 16 -426 20
-500 2 -44 7 -168 11 -275 6 -177 9 -267 13 -326 0 -11 7 -21 14 -21 6 0 26
-3 42 -7 17 -3 55 -10 85 -16 76 -15 254 -11 315 7 167 49 197 165 62 235 -53
27 -157 45 -249 44 -47 -1 -78 3 -79 9 0 5 -2 17 -4 25 -1 9 -6 63 -9 120 -4
58 -9 123 -11 145 -5 57 -14 158 -20 240 -3 39 -8 97 -10 130 -3 33 -8 94 -10
135 -3 41 -7 95 -10 120 -2 25 -7 86 -10 135 -3 50 -8 101 -10 115 -2 14 -7
69 -10 122 -3 53 -8 106 -10 117 -3 18 2 21 33 22 220 8 396 53 692 177 144
61 151 61 198 -1 58 -77 198 -215 388 -382 143 -126 188 -169 269 -255 267
-283 363 -359 493 -395 54 -15 133 -7 170 18 59 39 308 281 502 487 28 30 79
85 113 121 53 56 100 107 277 299 14 15 66 72 116 126 143 155 174 194 176
217 4 59 2 75 -10 112 -47 141 -198 295 -617 630 -110 87 -220 178 -245 201
-102 95 -153 124 -217 124 -46 0 -109 -28 -154 -67 -123 -107 -481 -493 -549
-591 -71 -104 32 -276 290 -483 74 -60 186 -133 218 -143 24 -8 72 26 206 148
163 147 272 272 291 335 7 23 6 23 -51 -9 -57 -32 -196 -134 -355 -259 -87
-68 -75 -70 -189 23 -99 80 -208 189 -249 250 l-34 49 105 101 c58 56 176 169
263 251 87 83 163 155 169 162 8 8 20 5 46 -15 19 -14 37 -28 40 -31 3 -4 25
-24 50 -45 197 -172 710 -673 710 -694 0 -7 -21 -31 -47 -54 -26 -24 -65 -60
-87 -81 -46 -43 -199 -184 -226 -207 -10 -8 -68 -62 -130 -120 -62 -58 -120
-112 -130 -120 -27 -23 -217 -198 -288 -265 -35 -33 -69 -63 -76 -67 -7 -4
-197 178 -489 467 l-478 474 37 53 c21 29 76 105 124 169 113 151 161 233 217
369 25 61 46 117 47 123 1 7 9 37 18 67 9 30 22 82 29 115 7 33 13 62 14 65 1
5 10 79 22 170 3 25 6 46 7 46 0 1 105 5 231 9 127 3 275 8 330 10 55 2 190 6
300 10 110 3 261 8 335 10 74 3 213 7 309 10 96 3 177 8 181 10 7 4 16 47 26
125 2 14 7 54 12 90 13 86 12 190 -1 243 -32 135 -172 183 -254 89 -34 -40
-50 -130 -52 -299 -1 -39 -3 -42 -38 -54 -21 -7 -42 -14 -48 -15 -33 -6 -102
-14 -185 -20 -52 -4 -108 -8 -125 -9 -16 -2 -75 -6 -130 -10 -55 -4 -107 -8
-115 -10 -8 -2 -62 -6 -120 -10 -58 -3 -116 -8 -130 -10 -14 -2 -68 -7 -120
-10 -52 -4 -111 -8 -130 -10 -19 -2 -78 -6 -130 -10 -52 -4 -99 -7 -104 -8
-18 -4 -45 95 -101 368 -18 90 -52 194 -86 265 -23 47 -52 116 -65 154 -23 68
-24 70 -6 90 11 12 34 39 53 61 19 22 172 179 341 350 169 170 319 324 334
340 14 17 45 50 68 75 99 107 182 222 231 319 33 66 39 91 40 156 0 41 -6 59
-30 91 -93 127 -520 554 -865 864 -46 41 -88 80 -94 86 -34 32 -195 168 -216
182 -14 8 -31 23 -38 31 -21 26 -126 21 -193 -10 -63 -30 -157 -114 -221 -197
-23 -31 -45 -59 -48 -62 -3 -3 -36 -44 -73 -92 -37 -47 -82 -102 -100 -121
-18 -20 -64 -70 -102 -113 -39 -43 -89 -98 -111 -123 -23 -25 -64 -73 -90
-106 -27 -33 -56 -68 -64 -78 -8 -9 -32 -45 -52 -79 -42 -68 -42 -76 2 -166
94 -195 448 -549 651 -653 38 -19 47 -20 77 -9 157 57 540 458 518 544 -23 91
-290 372 -448 473 -22 13 -42 22 -45 19 -9 -8 43 -108 84 -162 20 -27 68 -87
106 -132 69 -83 137 -186 137 -206 0 -12 -77 -95 -252 -273 l-110 -112 -57 57
c-31 31 -92 89 -136 127 -189 167 -289 273 -328 348 l-19 34 29 30 c34 35 307
323 364 385 114 120 318 336 352 371 38 38 39 39 60 21 50 -41 412 -412 507
-520 19 -22 71 -80 116 -129 132 -148 147 -165 164 -186 8 -11 25 -32 38 -47
38 -45 82 -110 82 -122 0 -7 -31 -42 -69 -79 -52 -50 -837 -820 -873 -856 -7
-7 -81 44 -203 144 -44 35 -116 88 -160 116 -131 84 -364 180 -485 200 -25 4
-53 9 -62 10 -9 2 -48 7 -85 10 -119 12 -144 24 -167 78 -24 58 -29 156 -41
762 -4 205 -9 368 -20 690 -2 55 -4 118 -4 140 l-1 40 -67 22 c-38 12 -81 25
-98 29 -58 13 -200 12 -255 -2z"/>
<path d="M2785 6341 c-47 -21 -68 -44 -83 -88 -38 -114 115 -269 278 -281 68
-5 139 24 174 72 41 54 16 154 -55 224 -80 78 -228 112 -314 73z"/>
<path d="M3020 5864 c-123 -46 -163 -120 -116 -212 23 -44 102 -111 164 -140
70 -32 178 -36 229 -9 43 23 77 71 79 110 4 78 -75 179 -175 225 -54 25 -148
38 -181 26z"/>
<path d="M6155 4285 c-111 -50 -178 -156 -179 -285 0 -88 17 -128 67 -159 41
-25 79 -26 138 -6 85 30 159 136 178 255 27 172 -63 259 -204 195z"/>
<path d="M5672 4106 c-79 -27 -142 -105 -168 -207 -19 -75 -13 -127 24 -199
l28 -55 64 1 c80 1 133 26 184 86 91 106 92 302 1 362 -32 21 -91 27 -133 12z"/>
<path d="M1298 3342 c-61 -32 -118 -101 -141 -171 -21 -63 -16 -165 11 -218
33 -64 44 -71 104 -66 168 14 286 196 239 370 -12 43 -68 102 -99 104 -9 0
-27 2 -39 5 -12 2 -45 -9 -75 -24z"/>
<path d="M845 3168 c-32 -11 -92 -52 -113 -78 -23 -27 -71 -127 -78 -162 -13
-59 -7 -137 13 -170 39 -67 127 -89 202 -50 122 64 202 257 157 377 -27 69
-109 107 -181 83z"/>
<path d="M3761 1508 c-109 -19 -154 -110 -106 -212 52 -109 225 -187 360 -163
92 17 133 110 92 208 -43 102 -222 189 -346 167z"/>
<path d="M3937 1016 c-70 -19 -99 -52 -105 -119 -7 -92 41 -158 156 -216 134
-68 278 -53 313 32 29 69 -3 174 -69 225 -54 43 -96 62 -170 78 -78 16 -65 16
-125 0z"/>
</g>
</svg>
